<?xml version="1.0" encoding="UTF-8" standalone="no"?>
<!-- Created with Inkscape (http://www.inkscape.org/) -->

<svg
   xmlns:dc="http://purl.org/dc/elements/1.1/"
   xmlns:cc="http://creativecommons.org/ns#"
   xmlns:rdf="http://www.w3.org/1999/02/22-rdf-syntax-ns#"
   xmlns:svg="http://www.w3.org/2000/svg"
   xmlns="http://www.w3.org/2000/svg"
   xmlns:sodipodi="http://sodipodi.sourceforge.net/DTD/sodipodi-0.dtd"
   xmlns:inkscape="http://www.inkscape.org/namespaces/inkscape"
   width="175mm"
   height="175mm"
   viewBox="0 0 620.07875 620.07874"
   id="svg38521"
   version="1.1"
   inkscape:version="0.91 r13725"
   sodipodi:docname="favicon.svg">
  <defs
     id="defs38523" />
  <sodipodi:namedview
     id="base"
     pagecolor="#ffffff"
     bordercolor="#666666"
     borderopacity="1.0"
     inkscape:pageopacity="0.0"
     inkscape:pageshadow="2"
     inkscape:zoom="0.24748737"
     inkscape:cx="-142.89053"
     inkscape:cy="326.42364"
     inkscape:document-units="px"
     inkscape:current-layer="layer1"
     showgrid="false"
     fit-margin-top="0"
     fit-margin-left="0"
     fit-margin-right="0"
     fit-margin-bottom="0"
     inkscape:window-width="1534"
     inkscape:window-height="1063"
     inkscape:window-x="0"
     inkscape:window-y="15"
     inkscape:window-maximized="0" />
  <metadata
     id="metadata38526">
    <rdf:RDF>
      <cc:Work
         rdf:about="">
        <dc:format>image/svg+xml</dc:format>
        <dc:type
           rdf:resource="http://purl.org/dc/dcmitype/StillImage" />
        <dc:title></dc:title>
      </cc:Work>
    </rdf:RDF>
  </metadata>
  <g
     inkscape:label="Layer 1"
     inkscape:groupmode="layer"
     id="layer1"
     transform="translate(-86.388353,-114.4978)">
    <path
       d="m 442.24538,658.80336 32.7575,12.2713 19.36,27.8471 52.4275,-78.6534 116.38125,-120.2175 -37.13125,-12.8762 -19.59375,-28.1888 -79.44875,65.81 -84.7525,134.0075"
       style="fill:#b4cfb0;fill-opacity:1;fill-rule:nonzero;stroke:none"
       id="path28"
       inkscape:connector-curvature="0" />
    <path
       d="m 663.17163,500.05086 c 0,0 84.23251,146.4475 -83.47125,213.2825 0,0 -64.8125,3.1675 -74.81625,-5.2411 -9.99125,-8.4092 16.12875,-77.5614 158.2875,-208.0414"
       style="fill:#d7efd0;fill-opacity:1;fill-rule:nonzero;stroke:none"
       id="path30"
       inkscape:connector-curvature="0" />
    <path
       d="m 313.87163,139.38091 292.575,319.60495 -75.5825,60.8438 -310.15,-330.9325 93.1575,-49.51625"
       style="fill:#d7efd0;fill-opacity:1;fill-rule:nonzero;stroke:none"
       id="path32"
       inkscape:connector-curvature="0" />
    <path
       d="m 220.71413,188.89716 302.295,322.52 -37.8625,65.8987 L 117.27701,328.02341 220.71413,188.89716"
       style="fill:#b4cfb0;fill-opacity:1;fill-rule:nonzero;stroke:none"
       id="path34"
       inkscape:connector-curvature="0" />
    <path
       d="m 117.27701,328.02341 371.27087,246.14625 -48.62875,75.5987 -324.00437,-205.1062 1.36225,-116.63875"
       style="fill:#829784;fill-opacity:1;fill-rule:nonzero;stroke:none"
       id="path36"
       inkscape:connector-curvature="0" />
    <path
       d="m 537.47163,513.76466 c 12.7575,-7.5463 25.16875,-15.52 37.58,-23.49 12.35125,-8.05 24.585,-16.2475 36.725,-24.5675 l 7.12375,-4.8813 -6.13375,-7.6275 c -45.32875,-56.4112 -92.81125,-110.84745 -141.44375,-164.23495 -48.72625,-53.3025 -98.695,-105.46 -150.69125,-155.77625 l -5.49875,-5.325 -5.56625,3.4175 c -15.00875,9.22125 -29.975,18.53625 -44.7925,28.1175 -7.445,4.72875 -14.7675,9.695 -22.145,14.535 -7.37625,4.85875 -14.66,9.87625 -21.915,14.965 8.26875,-3.16875 16.51,-6.4 24.665,-9.7975 8.13875,-3.4125 16.345,-6.69875 24.4325,-10.22375 16.22625,-6.92375 32.3175,-14.115 48.36625,-21.39875 l -11.07375,-1.90375 c 45.5325,56.22125 93.08625,110.59875 141.88375,163.83375 48.89125,53.15 98.93625,105.2425 151.13125,155.3775 l 0.99,-12.5125 c -10.85,9.9362 -21.6075,20 -32.2425,30.2075 -10.575,10.2862 -21.1575,20.565 -31.395,31.285"
       style="fill:#211917;fill-opacity:1;fill-rule:nonzero;stroke:none"
       id="path38"
       inkscape:connector-curvature="0" />
    <path
       d="m 210.24913,205.27216 -24.80125,29.505 -24.55125,29.7025 -48.69625,59.7025 -1.19675,1.4725 -0.0889,2.2925 -2.30075,58.3025 c -0.78713,19.4325 -1.53125,38.87 -2.08163,58.3062 l -0.144,5.0688 4.50925,2.965 c 26.6915,17.58 53.26525,35.35 80.05775,52.7737 l 80.3875,52.2375 80.75125,51.6775 c 26.92875,17.2075 53.8325,34.445 80.96,51.345 l 10.87,6.7675 6.8025,-10.6725 48.32375,-75.79 -0.65125,0.9138 c 14.05625,-18.155 27.825,-36.53 41.755,-54.7875 l 6.175,-8.0963 -6.86875,-7.165 c -23.98875,-25.0425 -47.88375,-50.1775 -72.14375,-74.9562 -24.19125,-24.8513 -48.2725,-49.805 -72.7275,-74.41125 l -36.56372,-37.02125 -36.84375,-36.75375 c -24.585,-24.48875 -49.39,-48.76 -74.415,-72.83375 22.32625,26.59375 44.86,52.99375 67.63,79.17375 l 34.17875,39.24625 34.46625,38.97625 c 22.8925,26.065 46.16625,51.77875 69.3225,77.59995 23.07875,25.8825 46.53875,51.42 69.89625,77.05 l -0.685,-15.2662 c -14.28,17.9725 -28.72125,35.8287 -42.88,53.8987 l -0.32125,0.41 -0.32625,0.5125 -48.92375,75.4 17.66875,-3.9037 c -26.8825,-17.2838 -53.97125,-34.23 -81.04375,-51.2088 l -81.25875,-50.8712 -81.60625,-50.3163 c -27.21625,-16.755 -54.64375,-33.1712 -81.95275,-49.7787 l 4.36125,8.0325 c -0.0971,-19.4413 -0.3935,-38.89125 -0.71875,-58.3325 l -0.94325,-58.34 -1.28612,3.765 44.27962,-63.04875 21.9375,-31.67875 21.6875,-31.865"
       style="fill:#211917;fill-opacity:1;fill-rule:nonzero;stroke:none"
       id="path40"
       inkscape:connector-curvature="0" />
    <path
       d="m 483.09038,582.65466 c -13.345,-11.2625 -4.645,-8.0013 3.55625,-4.7413 7.9475,3.16 15.425,6.32 1.90125,-3.7437 -27.50875,-20.3938 -141.79125,-95.2475 -169.98,-114.66 -28.18125,-19.4288 -56.68375,-38.3788 -85.54875,-56.81 -28.9,-18.375 -58.07875,-36.34 -88.18787,-52.96375 26.26912,22.2 53.45912,43.05375 80.93787,63.49245 27.51125,20.3938 55.3875,40.2625 83.585,59.6575 28.18875,19.4063 139.8075,99.2188 168.6775,117.645 14.65625,9.315 8.0075,2.8763 1.82,-3.5625 -6.01375,-6.2575 -11.5925,-12.515 3.23875,-4.3137"
       style="fill:#211917;fill-opacity:1;fill-rule:nonzero;stroke:none"
       id="path42"
       inkscape:connector-curvature="0" />
    <path
       d="m 693.52663,582.06716 c -0.6975,15.2325 -4.53125,30.4437 -11.2175,44.2162 -3.24125,6.865 -7.34375,13.6213 -11.345,19.6788 -4.1125,6.2812 -8.385,12.3812 -13.00375,18.32 -9.28125,11.7887 -19.67,22.9049 -31.51375,32.626 -11.8025,9.729 -25.2875,17.8765 -40.1175,23.1377 -14.78,5.2964 -30.88375,7.5137 -46.6575,6.1264 -15.78625,-1.4477 -30.9725,-6.4014 -44.74125,-13.4262 l -6.21,-3.1689 1.82375,-6.4639 c 0.9775,-3.4761 1.92,-5.9472 3.0025,-8.7774 1.0625,-2.7323 2.19625,-5.3975 3.3675,-8.0361 2.365,-5.2451 4.85625,-10.3976 7.60625,-15.3889 5.45625,-10 11.43375,-19.6112 17.74875,-28.9462 12.55875,-18.735 26.80125,-36.13 41.73375,-52.7613 15,-16.5825 30.905,-32.25 47.48625,-47.0887 16.57375,-14.8563 33.7975,-28.9263 51.6825,-42.0638 19.5975,21.6575 31.57375,51.395 30.355,82.0163 m -76.77125,-34.5813 c -15.0375,16.1425 -29.57125,32.6738 -43.31125,49.7713 -13.7775,17.06 -26.61125,34.8137 -38.29,53.1287 -5.795,9.1875 -11.21875,18.5788 -16.06625,28.1727 -2.39875,4.8135 -4.775,9.6098 -6.8775,14.4833 -1.05375,2.4327 -2.05625,4.8727 -2.9775,7.3092 -0.88125,2.3398 -1.8275,5.085 -2.3275,6.937 l -4.3775,-9.6274 c 24.43625,12.3637 52.71,15.5239 78.23875,6.4852 25.53625,-8.9637 47.73625,-27.4237 65.8325,-49.1025 4.61,-5.3762 9.03,-11.0025 13.21375,-16.73 4.34,-5.905 8.12625,-11.4675 11.4725,-17.6387 6.61125,-12.1875 11.3275,-25.4563 12.91375,-39.3488 3.38875,-27.7737 -4.9025,-57.02 -21.0275,-81.275 -15.78625,15.5963 -31.37,31.2938 -46.41625,47.435"
       style="fill:#211917;fill-opacity:1;fill-rule:nonzero;stroke:none"
       id="path44"
       inkscape:connector-curvature="0" />
    <path
       d="m 595.85913,651.57086 c 4.03125,3.5275 14.04,-1.3037 22.35625,-10.8 8.32,-9.4925 11.7925,-20.0537 7.76625,-23.5825 -4.03125,-3.5275 -14.04375,1.3075 -22.3525,10.795 -8.32375,9.4925 -11.80125,20.055 -7.77,23.5875"
       style="fill:#211917;fill-opacity:1;fill-rule:nonzero;stroke:none"
       id="path46"
       inkscape:connector-curvature="0" />
    <path
       d="m 593.28288,686.93356 c 4.0275,3.5273 14.035,-1.3115 22.35125,-10.7989 8.31625,-9.4963 11.79,-20.055 7.7625,-23.5825 -4.0275,-3.5325 -14.03125,1.3062 -22.3475,10.795 -8.31625,9.4925 -11.7975,20.0497 -7.76625,23.5864"
       style="fill:#211917;fill-opacity:1;fill-rule:nonzero;stroke:none"
       id="path48"
       inkscape:connector-curvature="0" />
    <path
       d="m 631.56538,667.35336 c 4.03125,3.5313 14.035,-1.3075 22.35125,-10.795 8.32,-9.4975 11.79375,-20.055 7.76625,-23.5875 -4.03125,-3.5325 -14.035,1.3075 -22.35125,10.8 -8.32125,9.4913 -11.8025,20.05 -7.76625,23.5825"
       style="fill:#211917;fill-opacity:1;fill-rule:nonzero;stroke:none"
       id="path50"
       inkscape:connector-curvature="0" />
    <path
       d="m 633.35038,632.49336 c 4.03125,3.5313 14.03875,-1.3037 22.35125,-10.795 8.32,-9.4975 11.80125,-20.0512 7.7625,-23.5787 -4.0275,-3.5363 -14.03125,1.2987 -22.3475,10.795 -8.31625,9.4925 -11.7975,20.0512 -7.76625,23.5787"
       style="fill:#211917;fill-opacity:1;fill-rule:nonzero;stroke:none"
       id="path52"
       inkscape:connector-curvature="0" />
    <path
       d="m 501.97413,721.25576 3.1125,-14.7114 c 15.49875,-73.3997 160.88125,-200.3135 162.345,-201.591 l 8.325,-7.225 -46.205,-16.8825 -17.775,-25.5662 -10.6675,7.415 20.12125,28.9462 29.4875,10.7738 c -29.79125,26.7975 -129.9125,120.3275 -154.4175,187.911 l -17.1225,-24.6223 -34.6525,-12.9862 -4.55625,12.17 30.855,11.5601 31.15,44.8085"
       style="fill:#211917;fill-opacity:1;fill-rule:nonzero;stroke:none"
       id="path54"
       inkscape:connector-curvature="0" />
    <path
       d="m 546.90788,527.03586 c 0,0 0.40206,1.1374 0,1.2725 -0.84687,0.2847 -1.61875,-2.1362 -1.61875,-2.1362 0.40625,0.014 0.41125,0.8637 0.41125,0.8637 0.5275,-0.5225 1.2075,0 1.2075,0"
       style="fill:#d6d4c5;fill-opacity:1;fill-rule:evenodd;stroke:none"
       id="path23926"
       inkscape:connector-curvature="0"
       sodipodi:nodetypes="csccc" />
  </g>
</svg>
