<?xml version="1.0" encoding="UTF-8"?>
<svg xmlns="http://www.w3.org/2000/svg" xmlns:xlink="http://www.w3.org/1999/xlink" width="421pt" height="131pt" viewBox="0 0 421 131" version="1.1">
<defs>
<clipPath id="clip1">
  <path d="M 265 15 L 318.71875 15 L 318.71875 24 L 265 24 Z M 265 15 "/>
</clipPath>
<clipPath id="clip2">
  <path d="M 274 35 L 310.441406 35 L 310.441406 43 L 274 43 Z M 274 35 "/>
</clipPath>
<clipPath id="clip3">
  <path d="M 280 103 L 304.921875 103 L 304.921875 110 L 280 110 Z M 280 103 "/>
</clipPath>
<clipPath id="clip4">
  <path d="M 100 15 L 153.71875 15 L 153.71875 24 L 100 24 Z M 100 15 "/>
</clipPath>
</defs>
<g id="surface1">
<path style=" stroke:none;fill-rule:nonzero;fill:rgb(100%,100%,100%);fill-opacity:1;" d="M 0 0 L 421 0 L 421 130 L 0 130 Z M 0 0 "/>
<path style=" stroke:none;fill-rule:nonzero;fill:rgb(100%,100%,100%);fill-opacity:1;" d="M 0 0 L 420 0 L 420 130 L 0 130 Z M 0 0 "/>
<path style="fill-rule:nonzero;fill:rgb(100%,100%,100%);fill-opacity:1;stroke-width:1;stroke-linecap:butt;stroke-linejoin:miter;stroke:rgb(0%,0%,0%);stroke-opacity:1;stroke-miterlimit:10;" d="M 252.140625 7.921875 L 331.339844 7.921875 L 331.339844 29.519531 L 252.140625 29.519531 Z M 252.140625 7.921875 " transform="matrix(1,0,0,1,0.5,0.5)"/>
<g clip-path="url(#clip1)" clip-rule="nonzero">
<path style=" stroke:none;fill-rule:nonzero;fill:rgb(0%,0%,0%);fill-opacity:1;" d="M 268.257812 17.84375 C 268.652344 17.84375 268.964844 17.761719 269.195312 17.605469 C 269.421875 17.449219 269.539062 17.164062 269.539062 16.753906 C 269.539062 16.3125 269.378906 16.011719 269.058594 15.851562 C 268.886719 15.765625 268.65625 15.722656 268.371094 15.722656 L 266.320312 15.722656 L 266.320312 17.84375 Z M 265.480469 15.003906 L 268.347656 15.003906 C 268.820312 15.003906 269.210938 15.070312 269.515625 15.210938 C 270.097656 15.472656 270.390625 15.960938 270.390625 16.671875 C 270.390625 17.042969 270.3125 17.347656 270.160156 17.585938 C 270.007812 17.820312 269.792969 18.011719 269.515625 18.152344 C 269.757812 18.253906 269.941406 18.382812 270.0625 18.542969 C 270.183594 18.703125 270.253906 18.960938 270.269531 19.324219 L 270.296875 20.152344 C 270.304688 20.390625 270.324219 20.566406 270.355469 20.679688 C 270.40625 20.878906 270.496094 21.003906 270.625 21.0625 L 270.625 21.199219 L 269.597656 21.199219 C 269.570312 21.148438 269.546875 21.078125 269.53125 20.992188 C 269.511719 20.910156 269.5 20.746094 269.488281 20.503906 L 269.4375 19.46875 C 269.417969 19.066406 269.265625 18.792969 268.984375 18.65625 C 268.824219 18.582031 268.574219 18.542969 268.230469 18.542969 L 266.320312 18.542969 L 266.320312 21.199219 L 265.480469 21.199219 Z M 274.324219 16.804688 C 274.625 16.957031 274.851562 17.152344 275.011719 17.390625 C 275.164062 17.617188 275.265625 17.882812 275.316406 18.1875 C 275.359375 18.394531 275.382812 18.726562 275.382812 19.183594 L 272.070312 19.183594 C 272.085938 19.640625 272.191406 20.007812 272.394531 20.285156 C 272.597656 20.5625 272.910156 20.703125 273.335938 20.703125 C 273.734375 20.703125 274.050781 20.570312 274.285156 20.308594 C 274.421875 20.15625 274.515625 19.980469 274.570312 19.78125 L 275.320312 19.78125 C 275.300781 19.949219 275.234375 20.132812 275.121094 20.335938 C 275.011719 20.542969 274.886719 20.707031 274.75 20.835938 C 274.519531 21.0625 274.234375 21.214844 273.894531 21.292969 C 273.710938 21.335938 273.503906 21.359375 273.273438 21.359375 C 272.710938 21.359375 272.234375 21.15625 271.84375 20.746094 C 271.453125 20.335938 271.257812 19.765625 271.257812 19.027344 C 271.257812 18.300781 271.453125 17.710938 271.847656 17.257812 C 272.242188 16.808594 272.753906 16.582031 273.390625 16.582031 C 273.710938 16.582031 274.023438 16.65625 274.324219 16.804688 Z M 274.601562 18.582031 C 274.570312 18.25 274.5 17.988281 274.386719 17.792969 C 274.179688 17.425781 273.832031 17.242188 273.34375 17.242188 C 272.996094 17.242188 272.703125 17.367188 272.46875 17.621094 C 272.230469 17.871094 272.105469 18.191406 272.089844 18.582031 Z M 279.296875 16.921875 C 279.617188 17.167969 279.808594 17.597656 279.875 18.199219 L 279.136719 18.199219 C 279.089844 17.921875 278.988281 17.691406 278.828125 17.507812 C 278.667969 17.320312 278.410156 17.230469 278.054688 17.230469 C 277.570312 17.230469 277.226562 17.464844 277.019531 17.9375 C 276.882812 18.246094 276.816406 18.625 276.816406 19.074219 C 276.816406 19.527344 276.910156 19.90625 277.101562 20.21875 C 277.292969 20.527344 277.59375 20.679688 278.003906 20.679688 C 278.320312 20.679688 278.570312 20.585938 278.753906 20.390625 C 278.9375 20.199219 279.066406 19.9375 279.136719 19.601562 L 279.875 19.601562 C 279.789062 20.199219 279.578125 20.636719 279.242188 20.914062 C 278.902344 21.191406 278.472656 21.332031 277.945312 21.332031 C 277.355469 21.332031 276.882812 21.113281 276.53125 20.683594 C 276.179688 20.25 276.003906 19.710938 276.003906 19.066406 C 276.003906 18.273438 276.199219 17.65625 276.582031 17.214844 C 276.96875 16.773438 277.460938 16.550781 278.054688 16.550781 C 278.566406 16.550781 278.980469 16.675781 279.296875 16.921875 Z M 283.445312 16.804688 C 283.746094 16.957031 283.976562 17.152344 284.132812 17.390625 C 284.285156 17.617188 284.386719 17.882812 284.4375 18.1875 C 284.484375 18.394531 284.507812 18.726562 284.507812 19.183594 L 281.195312 19.183594 C 281.207031 19.640625 281.316406 20.007812 281.519531 20.285156 C 281.722656 20.5625 282.035156 20.703125 282.460938 20.703125 C 282.855469 20.703125 283.171875 20.570312 283.410156 20.308594 C 283.542969 20.15625 283.640625 19.980469 283.695312 19.78125 L 284.441406 19.78125 C 284.421875 19.949219 284.359375 20.132812 284.246094 20.335938 C 284.136719 20.542969 284.011719 20.707031 283.875 20.835938 C 283.640625 21.0625 283.355469 21.214844 283.015625 21.292969 C 282.832031 21.335938 282.628906 21.359375 282.398438 21.359375 C 281.835938 21.359375 281.355469 21.15625 280.964844 20.746094 C 280.574219 20.335938 280.378906 19.765625 280.378906 19.027344 C 280.378906 18.300781 280.578125 17.710938 280.96875 17.257812 C 281.363281 16.808594 281.878906 16.582031 282.515625 16.582031 C 282.835938 16.582031 283.144531 16.65625 283.445312 16.804688 Z M 283.726562 18.582031 C 283.695312 18.25 283.621094 17.988281 283.511719 17.792969 C 283.300781 17.425781 282.953125 17.242188 282.46875 17.242188 C 282.121094 17.242188 281.828125 17.367188 281.589844 17.621094 C 281.355469 17.871094 281.230469 18.191406 281.214844 18.582031 Z M 285.4375 16.703125 L 286.207031 16.703125 L 286.207031 21.199219 L 285.4375 21.199219 Z M 285.4375 15.003906 L 286.207031 15.003906 L 286.207031 15.863281 L 285.4375 15.863281 Z M 287.71875 16.683594 L 288.925781 20.359375 L 290.1875 16.683594 L 291.019531 16.683594 L 289.316406 21.199219 L 288.503906 21.199219 L 286.839844 16.683594 Z M 294.484375 16.804688 C 294.785156 16.957031 295.011719 17.152344 295.171875 17.390625 C 295.324219 17.617188 295.425781 17.882812 295.476562 18.1875 C 295.519531 18.394531 295.542969 18.726562 295.542969 19.183594 L 292.230469 19.183594 C 292.246094 19.640625 292.351562 20.007812 292.554688 20.285156 C 292.757812 20.5625 293.070312 20.703125 293.496094 20.703125 C 293.894531 20.703125 294.210938 20.570312 294.445312 20.308594 C 294.582031 20.15625 294.675781 19.980469 294.730469 19.78125 L 295.480469 19.78125 C 295.460938 19.949219 295.394531 20.132812 295.28125 20.335938 C 295.171875 20.542969 295.046875 20.707031 294.910156 20.835938 C 294.679688 21.0625 294.394531 21.214844 294.054688 21.292969 C 293.871094 21.335938 293.664062 21.359375 293.433594 21.359375 C 292.871094 21.359375 292.394531 21.15625 292.003906 20.746094 C 291.613281 20.335938 291.417969 19.765625 291.417969 19.027344 C 291.417969 18.300781 291.613281 17.710938 292.007812 17.257812 C 292.402344 16.808594 292.914062 16.582031 293.550781 16.582031 C 293.871094 16.582031 294.183594 16.65625 294.484375 16.804688 Z M 294.761719 18.582031 C 294.730469 18.25 294.660156 17.988281 294.546875 17.792969 C 294.339844 17.425781 293.992188 17.242188 293.503906 17.242188 C 293.15625 17.242188 292.863281 17.367188 292.628906 17.621094 C 292.390625 17.871094 292.265625 18.191406 292.25 18.582031 Z M 296.496094 16.683594 L 297.214844 16.683594 L 297.214844 17.460938 C 297.273438 17.308594 297.417969 17.125 297.648438 16.90625 C 297.878906 16.6875 298.148438 16.582031 298.449219 16.582031 C 298.460938 16.582031 298.484375 16.582031 298.519531 16.585938 C 298.554688 16.585938 298.609375 16.59375 298.691406 16.601562 L 298.691406 17.402344 C 298.648438 17.394531 298.605469 17.390625 298.566406 17.386719 C 298.53125 17.382812 298.488281 17.382812 298.441406 17.382812 C 298.0625 17.382812 297.765625 17.503906 297.5625 17.75 C 297.355469 17.996094 297.253906 18.28125 297.253906 18.601562 L 297.253906 21.199219 L 296.496094 21.199219 Z M 304.167969 17.621094 C 304.523438 17.621094 304.796875 17.574219 304.996094 17.476562 C 305.304688 17.320312 305.460938 17.042969 305.460938 16.640625 C 305.460938 16.234375 305.292969 15.960938 304.964844 15.820312 C 304.78125 15.742188 304.503906 15.703125 304.136719 15.703125 L 302.640625 15.703125 L 302.640625 17.621094 Z M 304.449219 20.484375 C 304.964844 20.484375 305.332031 20.332031 305.550781 20.035156 C 305.691406 19.847656 305.757812 19.621094 305.757812 19.351562 C 305.757812 18.902344 305.558594 18.59375 305.15625 18.433594 C 304.941406 18.34375 304.660156 18.300781 304.308594 18.300781 L 302.640625 18.300781 L 302.640625 20.484375 Z M 301.816406 15.003906 L 304.480469 15.003906 C 305.207031 15.003906 305.722656 15.21875 306.027344 15.652344 C 306.207031 15.910156 306.296875 16.203125 306.296875 16.539062 C 306.296875 16.929688 306.1875 17.25 305.964844 17.5 C 305.851562 17.632812 305.683594 17.753906 305.46875 17.863281 C 305.785156 17.984375 306.023438 18.121094 306.179688 18.273438 C 306.457031 18.542969 306.597656 18.914062 306.597656 19.390625 C 306.597656 19.789062 306.472656 20.152344 306.222656 20.472656 C 305.847656 20.957031 305.253906 21.199219 304.4375 21.199219 L 301.816406 21.199219 Z M 310.320312 16.683594 L 311.160156 16.683594 C 311.054688 16.972656 310.816406 17.632812 310.445312 18.664062 C 310.171875 19.441406 309.941406 20.074219 309.753906 20.5625 C 309.316406 21.714844 309.007812 22.417969 308.828125 22.671875 C 308.648438 22.925781 308.335938 23.050781 307.898438 23.050781 C 307.792969 23.050781 307.710938 23.046875 307.652344 23.039062 C 307.59375 23.03125 307.523438 23.015625 307.4375 22.992188 L 307.4375 22.300781 C 307.570312 22.335938 307.667969 22.359375 307.726562 22.367188 C 307.785156 22.378906 307.835938 22.382812 307.882812 22.382812 C 308.023438 22.382812 308.125 22.359375 308.191406 22.3125 C 308.257812 22.265625 308.3125 22.207031 308.359375 22.140625 C 308.371094 22.117188 308.421875 22.003906 308.511719 21.792969 C 308.597656 21.585938 308.660156 21.433594 308.699219 21.332031 L 307.03125 16.683594 L 307.890625 16.683594 L 309.101562 20.359375 Z M 311.96875 15.421875 L 312.738281 15.421875 L 312.738281 16.683594 L 313.460938 16.683594 L 313.460938 17.300781 L 312.738281 17.300781 L 312.738281 20.25 C 312.738281 20.410156 312.792969 20.515625 312.898438 20.566406 C 312.957031 20.597656 313.054688 20.613281 313.195312 20.613281 C 313.230469 20.613281 313.269531 20.613281 313.3125 20.613281 C 313.355469 20.609375 313.402344 20.605469 313.460938 20.601562 L 313.460938 21.199219 C 313.371094 21.226562 313.28125 21.242188 313.1875 21.253906 C 313.09375 21.265625 312.992188 21.273438 312.882812 21.273438 C 312.527344 21.273438 312.285156 21.179688 312.160156 21 C 312.035156 20.816406 311.96875 20.582031 311.96875 20.292969 L 311.96875 17.300781 L 311.359375 17.300781 L 311.359375 16.683594 L 311.96875 16.683594 Z M 317.027344 16.804688 C 317.328125 16.957031 317.558594 17.152344 317.714844 17.390625 C 317.867188 17.617188 317.96875 17.882812 318.019531 18.1875 C 318.066406 18.394531 318.085938 18.726562 318.085938 19.183594 L 314.777344 19.183594 C 314.789062 19.640625 314.898438 20.007812 315.101562 20.285156 C 315.304688 20.5625 315.617188 20.703125 316.042969 20.703125 C 316.4375 20.703125 316.753906 20.570312 316.992188 20.308594 C 317.125 20.15625 317.222656 19.980469 317.277344 19.78125 L 318.023438 19.78125 C 318.003906 19.949219 317.9375 20.132812 317.828125 20.335938 C 317.714844 20.542969 317.59375 20.707031 317.453125 20.835938 C 317.222656 21.0625 316.9375 21.214844 316.597656 21.292969 C 316.414062 21.335938 316.207031 21.359375 315.976562 21.359375 C 315.414062 21.359375 314.9375 21.15625 314.546875 20.746094 C 314.15625 20.335938 313.960938 19.765625 313.960938 19.027344 C 313.960938 18.300781 314.15625 17.710938 314.550781 17.257812 C 314.945312 16.808594 315.460938 16.582031 316.097656 16.582031 C 316.417969 16.582031 316.726562 16.65625 317.027344 16.804688 Z M 317.308594 18.582031 C 317.277344 18.25 317.203125 17.988281 317.089844 17.792969 C 316.882812 17.425781 316.535156 17.242188 316.050781 17.242188 C 315.699219 17.242188 315.410156 17.367188 315.171875 17.621094 C 314.9375 17.871094 314.8125 18.191406 314.796875 18.582031 Z M 317.308594 18.582031 "/>
</g>
<path style="fill-rule:nonzero;fill:rgb(100%,100%,100%);fill-opacity:1;stroke-width:1;stroke-linecap:butt;stroke-linejoin:miter;stroke:rgb(0%,0%,0%);stroke-opacity:1;stroke-miterlimit:10;" d="M 252.140625 29.519531 L 331.339844 29.519531 L 331.339844 123.121094 L 252.140625 123.121094 Z M 252.140625 29.519531 " transform="matrix(1,0,0,1,0.5,0.5)"/>
<g clip-path="url(#clip2)" clip-rule="nonzero">
<path style=" stroke:none;fill-rule:nonzero;fill:rgb(0%,0%,0%);fill-opacity:1;" d="M 274.378906 36.003906 L 275.371094 36.003906 L 278.5 41.023438 L 278.5 36.003906 L 279.296875 36.003906 L 279.296875 42.199219 L 278.355469 42.199219 L 275.179688 37.183594 L 275.179688 42.199219 L 274.378906 42.199219 Z M 281.332031 41.515625 C 281.492188 41.644531 281.683594 41.707031 281.902344 41.707031 C 282.167969 41.707031 282.425781 41.644531 282.679688 41.519531 C 283.101562 41.316406 283.3125 40.980469 283.3125 40.511719 L 283.3125 39.902344 C 283.21875 39.960938 283.097656 40.007812 282.953125 40.046875 C 282.804688 40.085938 282.664062 40.117188 282.523438 40.132812 L 282.0625 40.191406 C 281.785156 40.226562 281.578125 40.285156 281.441406 40.363281 C 281.207031 40.496094 281.089844 40.707031 281.089844 40.996094 C 281.089844 41.21875 281.171875 41.390625 281.332031 41.515625 Z M 282.929688 39.460938 C 283.105469 39.441406 283.222656 39.367188 283.28125 39.242188 C 283.316406 39.175781 283.332031 39.078125 283.332031 38.953125 C 283.332031 38.691406 283.238281 38.503906 283.054688 38.386719 C 282.871094 38.273438 282.609375 38.214844 282.265625 38.214844 C 281.867188 38.214844 281.585938 38.320312 281.421875 38.535156 C 281.328125 38.652344 281.265625 38.828125 281.238281 39.0625 L 280.53125 39.0625 C 280.542969 38.503906 280.726562 38.117188 281.074219 37.898438 C 281.417969 37.679688 281.824219 37.570312 282.28125 37.570312 C 282.8125 37.570312 283.246094 37.671875 283.578125 37.875 C 283.90625 38.078125 284.070312 38.394531 284.070312 38.820312 L 284.070312 41.421875 C 284.070312 41.503906 284.085938 41.566406 284.117188 41.613281 C 284.152344 41.660156 284.21875 41.683594 284.324219 41.683594 C 284.355469 41.683594 284.394531 41.683594 284.4375 41.679688 C 284.480469 41.675781 284.523438 41.667969 284.570312 41.660156 L 284.570312 42.222656 C 284.453125 42.253906 284.363281 42.277344 284.300781 42.285156 C 284.238281 42.292969 284.15625 42.296875 284.050781 42.296875 C 283.789062 42.296875 283.597656 42.203125 283.480469 42.019531 C 283.417969 41.921875 283.375 41.78125 283.347656 41.601562 C 283.195312 41.804688 282.972656 41.980469 282.683594 42.128906 C 282.390625 42.277344 282.074219 42.351562 281.722656 42.351562 C 281.304688 42.351562 280.960938 42.222656 280.695312 41.96875 C 280.429688 41.714844 280.296875 41.398438 280.296875 41.015625 C 280.296875 40.59375 280.429688 40.269531 280.691406 40.039062 C 280.953125 39.808594 281.296875 39.667969 281.71875 39.613281 Z M 289.851562 36.453125 C 290.285156 36.867188 290.527344 37.335938 290.574219 37.863281 L 289.753906 37.863281 C 289.664062 37.464844 289.476562 37.148438 289.199219 36.914062 C 288.921875 36.679688 288.535156 36.5625 288.035156 36.5625 C 287.425781 36.5625 286.929688 36.777344 286.554688 37.207031 C 286.179688 37.636719 285.992188 38.292969 285.992188 39.179688 C 285.992188 39.90625 286.160156 40.492188 286.5 40.945312 C 286.839844 41.394531 287.34375 41.621094 288.015625 41.621094 C 288.636719 41.621094 289.105469 41.382812 289.429688 40.910156 C 289.601562 40.660156 289.730469 40.328125 289.816406 39.921875 L 290.632812 39.921875 C 290.558594 40.574219 290.316406 41.121094 289.90625 41.5625 C 289.414062 42.09375 288.75 42.359375 287.917969 42.359375 C 287.195312 42.359375 286.589844 42.140625 286.101562 41.707031 C 285.457031 41.128906 285.136719 40.238281 285.136719 39.035156 C 285.136719 38.121094 285.378906 37.371094 285.863281 36.789062 C 286.382812 36.152344 287.105469 35.832031 288.027344 35.832031 C 288.808594 35.832031 289.417969 36.039062 289.851562 36.453125 Z M 291.566406 36.003906 L 292.324219 36.003906 L 292.324219 42.199219 L 291.566406 42.199219 Z M 298.285156 38.621094 C 298.640625 38.621094 298.914062 38.574219 299.109375 38.476562 C 299.421875 38.320312 299.574219 38.042969 299.574219 37.640625 C 299.574219 37.234375 299.410156 36.960938 299.082031 36.820312 C 298.894531 36.742188 298.621094 36.703125 298.253906 36.703125 L 296.757812 36.703125 L 296.757812 38.621094 Z M 298.566406 41.484375 C 299.082031 41.484375 299.449219 41.332031 299.667969 41.035156 C 299.804688 40.847656 299.875 40.621094 299.875 40.351562 C 299.875 39.902344 299.671875 39.59375 299.273438 39.433594 C 299.058594 39.34375 298.773438 39.300781 298.421875 39.300781 L 296.757812 39.300781 L 296.757812 41.484375 Z M 295.933594 36.003906 L 298.597656 36.003906 C 299.320312 36.003906 299.839844 36.21875 300.144531 36.652344 C 300.324219 36.910156 300.414062 37.203125 300.414062 37.539062 C 300.414062 37.929688 300.304688 38.25 300.082031 38.5 C 299.964844 38.632812 299.800781 38.753906 299.582031 38.863281 C 299.902344 38.984375 300.140625 39.121094 300.296875 39.273438 C 300.574219 39.542969 300.714844 39.914062 300.714844 40.390625 C 300.714844 40.789062 300.589844 41.152344 300.339844 41.472656 C 299.964844 41.957031 299.371094 42.199219 298.554688 42.199219 L 295.933594 42.199219 Z M 304.441406 41.140625 C 304.628906 40.757812 304.722656 40.332031 304.722656 39.867188 C 304.722656 39.445312 304.65625 39.101562 304.519531 38.835938 C 304.308594 38.421875 303.9375 38.214844 303.414062 38.214844 C 302.953125 38.214844 302.613281 38.390625 302.402344 38.746094 C 302.191406 39.097656 302.085938 39.527344 302.085938 40.027344 C 302.085938 40.507812 302.191406 40.910156 302.402344 41.230469 C 302.613281 41.550781 302.949219 41.710938 303.40625 41.710938 C 303.910156 41.710938 304.257812 41.519531 304.441406 41.140625 Z M 304.914062 38.132812 C 305.316406 38.519531 305.515625 39.09375 305.515625 39.847656 C 305.515625 40.574219 305.339844 41.175781 304.984375 41.652344 C 304.628906 42.125 304.082031 42.363281 303.335938 42.363281 C 302.714844 42.363281 302.21875 42.152344 301.855469 41.734375 C 301.488281 41.3125 301.304688 40.75 301.304688 40.039062 C 301.304688 39.28125 301.5 38.675781 301.882812 38.226562 C 302.269531 37.777344 302.789062 37.550781 303.4375 37.550781 C 304.019531 37.550781 304.511719 37.746094 304.914062 38.132812 Z M 305.988281 37.683594 L 306.972656 37.683594 L 308.007812 39.273438 L 309.058594 37.683594 L 309.984375 37.703125 L 308.460938 39.882812 L 310.050781 42.199219 L 309.082031 42.199219 L 307.957031 40.503906 L 306.871094 42.199219 L 305.90625 42.199219 L 307.5 39.882812 Z M 305.988281 37.683594 "/>
</g>
<path style="fill:none;stroke-width:1;stroke-linecap:butt;stroke-linejoin:miter;stroke:rgb(0%,0%,0%);stroke-opacity:1;stroke-dasharray:2.16,2.16;stroke-miterlimit:10;" d="M 259.339844 51.121094 L 324.140625 51.121094 L 324.140625 117.359375 L 259.339844 117.359375 Z M 259.339844 51.121094 " transform="matrix(1,0,0,1,0.5,0.5)"/>
<path style=" stroke:none;fill-rule:nonzero;fill:rgb(90.194702%,81.567383%,87.057495%);fill-opacity:1;" d="M 259.839844 52.339844 L 324.640625 52.339844 L 324.640625 73.941406 L 259.839844 73.941406 Z M 259.839844 52.339844 "/>
<path style=" stroke:none;fill-rule:nonzero;fill:rgb(0%,0%,0%);fill-opacity:1;" d="M 283.355469 59.003906 L 284.558594 59.003906 L 286.339844 64.242188 L 288.105469 59.003906 L 289.296875 59.003906 L 289.296875 65.199219 L 288.5 65.199219 L 288.5 61.542969 C 288.5 61.414062 288.503906 61.207031 288.507812 60.914062 C 288.515625 60.621094 288.515625 60.308594 288.515625 59.972656 L 286.75 65.199219 L 285.917969 65.199219 L 284.136719 59.972656 L 284.136719 60.164062 C 284.136719 60.316406 284.140625 60.546875 284.148438 60.855469 C 284.15625 61.167969 284.160156 61.394531 284.160156 61.542969 L 284.160156 65.199219 L 283.355469 65.199219 Z M 293.746094 62.660156 L 292.808594 59.921875 L 291.808594 62.660156 Z M 292.367188 59.003906 L 293.316406 59.003906 L 295.566406 65.199219 L 294.644531 65.199219 L 294.019531 63.34375 L 291.566406 63.34375 L 290.894531 65.199219 L 290.035156 65.199219 Z M 300.765625 59.453125 C 301.199219 59.867188 301.4375 60.335938 301.488281 60.863281 L 300.667969 60.863281 C 300.574219 60.464844 300.390625 60.148438 300.113281 59.914062 C 299.835938 59.679688 299.449219 59.5625 298.945312 59.5625 C 298.335938 59.5625 297.84375 59.777344 297.46875 60.207031 C 297.09375 60.636719 296.90625 61.292969 296.90625 62.179688 C 296.90625 62.90625 297.074219 63.492188 297.414062 63.945312 C 297.753906 64.394531 298.257812 64.621094 298.929688 64.621094 C 299.546875 64.621094 300.019531 64.382812 300.34375 63.910156 C 300.515625 63.660156 300.644531 63.328125 300.726562 62.921875 L 301.546875 62.921875 C 301.472656 63.574219 301.230469 64.121094 300.820312 64.5625 C 300.328125 65.09375 299.664062 65.359375 298.828125 65.359375 C 298.109375 65.359375 297.503906 65.140625 297.015625 64.707031 C 296.371094 64.128906 296.046875 63.238281 296.046875 62.035156 C 296.046875 61.121094 296.289062 60.371094 296.773438 59.789062 C 297.296875 59.152344 298.019531 58.832031 298.9375 58.832031 C 299.722656 58.832031 300.332031 59.039062 300.765625 59.453125 Z M 300.765625 59.453125 "/>
<path style=" stroke:none;fill-rule:nonzero;fill:rgb(60.391235%,78.038025%,74.900818%);fill-opacity:1;" d="M 259.839844 73.941406 L 324.640625 73.941406 L 324.640625 95.539062 L 259.839844 95.539062 Z M 259.839844 73.941406 "/>
<path style=" stroke:none;fill-rule:nonzero;fill:rgb(0%,0%,0%);fill-opacity:1;" d="M 271.976562 76.003906 L 276.496094 76.003906 L 276.496094 76.761719 L 272.796875 76.761719 L 272.796875 78.644531 L 276.21875 78.644531 L 276.21875 79.359375 L 272.796875 79.359375 L 272.796875 81.460938 L 276.558594 81.460938 L 276.558594 82.199219 L 271.976562 82.199219 Z M 277.558594 77.683594 L 278.277344 77.683594 L 278.277344 78.324219 C 278.492188 78.058594 278.71875 77.867188 278.957031 77.753906 C 279.195312 77.636719 279.460938 77.582031 279.753906 77.582031 C 280.394531 77.582031 280.828125 77.804688 281.054688 78.25 C 281.179688 78.496094 281.238281 78.847656 281.238281 79.300781 L 281.238281 82.199219 L 280.46875 82.199219 L 280.46875 79.351562 C 280.46875 79.078125 280.425781 78.855469 280.34375 78.6875 C 280.210938 78.40625 279.964844 78.265625 279.613281 78.265625 C 279.429688 78.265625 279.285156 78.28125 279.167969 78.320312 C 278.960938 78.378906 278.777344 78.503906 278.621094 78.691406 C 278.492188 78.839844 278.410156 78.992188 278.375 79.152344 C 278.335938 79.3125 278.316406 79.539062 278.316406 79.832031 L 278.316406 82.199219 L 277.558594 82.199219 Z M 285.34375 77.921875 C 285.664062 78.167969 285.855469 78.597656 285.921875 79.199219 L 285.183594 79.199219 C 285.136719 78.921875 285.035156 78.691406 284.875 78.507812 C 284.714844 78.320312 284.457031 78.230469 284.101562 78.230469 C 283.621094 78.230469 283.273438 78.464844 283.066406 78.9375 C 282.929688 79.246094 282.863281 79.625 282.863281 80.074219 C 282.863281 80.527344 282.957031 80.90625 283.148438 81.21875 C 283.339844 81.527344 283.640625 81.679688 284.050781 81.679688 C 284.367188 81.679688 284.617188 81.585938 284.800781 81.390625 C 284.984375 81.199219 285.113281 80.9375 285.183594 80.601562 L 285.921875 80.601562 C 285.835938 81.199219 285.625 81.636719 285.289062 81.914062 C 284.949219 82.191406 284.519531 82.332031 283.992188 82.332031 C 283.402344 82.332031 282.929688 82.113281 282.578125 81.683594 C 282.226562 81.25 282.050781 80.710938 282.050781 80.066406 C 282.050781 79.273438 282.246094 78.65625 282.628906 78.214844 C 283.015625 77.773438 283.507812 77.550781 284.101562 77.550781 C 284.613281 77.550781 285.027344 77.675781 285.34375 77.921875 Z M 286.703125 77.683594 L 287.421875 77.683594 L 287.421875 78.460938 C 287.480469 78.308594 287.628906 78.125 287.859375 77.90625 C 288.089844 77.6875 288.355469 77.582031 288.65625 77.582031 C 288.667969 77.582031 288.691406 77.582031 288.726562 77.585938 C 288.761719 77.585938 288.816406 77.59375 288.898438 77.601562 L 288.898438 78.402344 C 288.855469 78.394531 288.8125 78.390625 288.773438 78.386719 C 288.738281 78.382812 288.695312 78.382812 288.652344 78.382812 C 288.269531 78.382812 287.972656 78.503906 287.769531 78.75 C 287.5625 78.996094 287.460938 79.28125 287.460938 79.601562 L 287.460938 82.199219 L 286.703125 82.199219 Z M 292.371094 77.683594 L 293.210938 77.683594 C 293.105469 77.972656 292.867188 78.632812 292.5 79.664062 C 292.222656 80.441406 291.992188 81.074219 291.804688 81.5625 C 291.367188 82.714844 291.058594 83.417969 290.878906 83.671875 C 290.699219 83.925781 290.390625 84.050781 289.949219 84.050781 C 289.84375 84.050781 289.761719 84.046875 289.703125 84.039062 C 289.644531 84.03125 289.574219 84.015625 289.492188 83.992188 L 289.492188 83.300781 C 289.621094 83.335938 289.71875 83.359375 289.777344 83.367188 C 289.835938 83.378906 289.886719 83.382812 289.933594 83.382812 C 290.074219 83.382812 290.175781 83.359375 290.242188 83.3125 C 290.308594 83.265625 290.363281 83.207031 290.410156 83.140625 C 290.425781 83.117188 290.476562 83.003906 290.5625 82.792969 C 290.648438 82.585938 290.710938 82.433594 290.75 82.332031 L 289.082031 77.683594 L 289.941406 77.683594 L 291.152344 81.359375 Z M 296.660156 81.246094 C 296.894531 80.949219 297.011719 80.503906 297.011719 79.914062 C 297.011719 79.554688 296.960938 79.242188 296.855469 78.984375 C 296.660156 78.488281 296.300781 78.238281 295.777344 78.238281 C 295.25 78.238281 294.890625 78.5 294.695312 79.027344 C 294.59375 79.308594 294.539062 79.664062 294.539062 80.097656 C 294.539062 80.449219 294.59375 80.746094 294.695312 80.988281 C 294.894531 81.457031 295.253906 81.691406 295.777344 81.691406 C 296.128906 81.691406 296.425781 81.542969 296.660156 81.246094 Z M 293.808594 77.703125 L 294.546875 77.703125 L 294.546875 78.300781 C 294.699219 78.097656 294.867188 77.9375 295.046875 77.824219 C 295.300781 77.65625 295.601562 77.570312 295.949219 77.570312 C 296.460938 77.570312 296.894531 77.769531 297.253906 78.160156 C 297.609375 78.554688 297.789062 79.113281 297.789062 79.839844 C 297.789062 80.824219 297.53125 81.527344 297.015625 81.949219 C 296.691406 82.21875 296.3125 82.351562 295.878906 82.351562 C 295.539062 82.351562 295.25 82.277344 295.019531 82.128906 C 294.886719 82.042969 294.734375 81.898438 294.570312 81.695312 L 294.570312 84 L 293.808594 84 Z M 298.824219 76.421875 L 299.59375 76.421875 L 299.59375 77.683594 L 300.3125 77.683594 L 300.3125 78.300781 L 299.59375 78.300781 L 299.59375 81.25 C 299.59375 81.410156 299.644531 81.515625 299.753906 81.566406 C 299.8125 81.597656 299.910156 81.613281 300.046875 81.613281 C 300.085938 81.613281 300.125 81.613281 300.167969 81.613281 C 300.207031 81.609375 300.257812 81.605469 300.3125 81.601562 L 300.3125 82.199219 C 300.226562 82.226562 300.136719 82.242188 300.042969 82.253906 C 299.949219 82.265625 299.847656 82.273438 299.734375 82.273438 C 299.382812 82.273438 299.140625 82.179688 299.015625 82 C 298.886719 81.816406 298.824219 81.582031 298.824219 81.292969 L 298.824219 78.300781 L 298.214844 78.300781 L 298.214844 77.683594 L 298.824219 77.683594 Z M 303.882812 77.804688 C 304.183594 77.957031 304.414062 78.152344 304.570312 78.390625 C 304.722656 78.617188 304.824219 78.882812 304.875 79.1875 C 304.917969 79.394531 304.941406 79.726562 304.941406 80.183594 L 301.628906 80.183594 C 301.644531 80.640625 301.753906 81.007812 301.957031 81.285156 C 302.15625 81.5625 302.472656 81.703125 302.894531 81.703125 C 303.292969 81.703125 303.609375 81.570312 303.84375 81.308594 C 303.980469 81.15625 304.074219 80.980469 304.132812 80.78125 L 304.878906 80.78125 C 304.859375 80.949219 304.792969 81.132812 304.683594 81.335938 C 304.570312 81.542969 304.445312 81.707031 304.308594 81.835938 C 304.078125 82.0625 303.792969 82.214844 303.453125 82.292969 C 303.269531 82.335938 303.0625 82.359375 302.832031 82.359375 C 302.269531 82.359375 301.792969 82.15625 301.402344 81.746094 C 301.011719 81.335938 300.816406 80.765625 300.816406 80.027344 C 300.816406 79.300781 301.011719 78.710938 301.40625 78.257812 C 301.800781 77.808594 302.316406 77.582031 302.949219 77.582031 C 303.273438 77.582031 303.582031 77.65625 303.882812 77.804688 Z M 304.160156 79.582031 C 304.128906 79.25 304.058594 78.988281 303.945312 78.792969 C 303.738281 78.425781 303.390625 78.242188 302.90625 78.242188 C 302.554688 78.242188 302.261719 78.367188 302.027344 78.621094 C 301.789062 78.871094 301.664062 79.191406 301.652344 79.582031 Z M 306.660156 81.207031 C 306.867188 81.535156 307.195312 81.699219 307.648438 81.699219 C 308 81.699219 308.289062 81.546875 308.515625 81.246094 C 308.742188 80.941406 308.855469 80.507812 308.855469 79.941406 C 308.855469 79.371094 308.738281 78.949219 308.503906 78.675781 C 308.273438 78.402344 307.984375 78.265625 307.640625 78.265625 C 307.257812 78.265625 306.949219 78.410156 306.710938 78.703125 C 306.472656 78.996094 306.355469 79.425781 306.355469 79.992188 C 306.355469 80.476562 306.457031 80.882812 306.660156 81.207031 Z M 308.367188 77.820312 C 308.5 77.90625 308.65625 78.054688 308.828125 78.265625 L 308.828125 75.980469 L 309.554688 75.980469 L 309.554688 82.199219 L 308.871094 82.199219 L 308.871094 81.570312 C 308.695312 81.851562 308.484375 82.050781 308.242188 82.175781 C 308.003906 82.296875 307.726562 82.359375 307.414062 82.359375 C 306.910156 82.359375 306.472656 82.148438 306.105469 81.726562 C 305.738281 81.300781 305.550781 80.738281 305.550781 80.035156 C 305.550781 79.378906 305.71875 78.808594 306.054688 78.324219 C 306.394531 77.84375 306.871094 77.601562 307.496094 77.601562 C 307.84375 77.601562 308.132812 77.675781 308.367188 77.820312 Z M 308.367188 77.820312 "/>
<path style=" stroke:none;fill-rule:nonzero;fill:rgb(0%,0%,0%);fill-opacity:1;" d="M 282.859375 90.433594 C 282.859375 90.957031 282.78125 91.363281 282.628906 91.652344 C 282.339844 92.179688 281.796875 92.445312 280.992188 92.445312 C 280.527344 92.445312 280.128906 92.320312 279.800781 92.066406 C 279.472656 91.816406 279.308594 91.367188 279.308594 90.722656 L 279.308594 90.28125 L 280.097656 90.28125 L 280.097656 90.722656 C 280.097656 91.0625 280.171875 91.316406 280.320312 91.484375 C 280.472656 91.65625 280.707031 91.738281 281.023438 91.738281 C 281.472656 91.738281 281.765625 91.585938 281.902344 91.28125 C 281.988281 91.089844 282.027344 90.734375 282.027344 90.210938 L 282.027344 86.082031 L 282.859375 86.082031 Z M 284.6875 90.28125 C 284.707031 90.632812 284.789062 90.917969 284.933594 91.136719 C 285.214844 91.546875 285.703125 91.753906 286.40625 91.753906 C 286.722656 91.753906 287.007812 91.707031 287.269531 91.617188 C 287.769531 91.441406 288.019531 91.132812 288.019531 90.679688 C 288.019531 90.34375 287.914062 90.101562 287.703125 89.960938 C 287.488281 89.820312 287.15625 89.695312 286.699219 89.59375 L 285.859375 89.402344 C 285.3125 89.277344 284.921875 89.144531 284.695312 88.992188 C 284.300781 88.734375 284.105469 88.347656 284.105469 87.832031 C 284.105469 87.277344 284.296875 86.820312 284.683594 86.460938 C 285.066406 86.105469 285.613281 85.925781 286.320312 85.925781 C 286.96875 85.925781 287.519531 86.082031 287.976562 86.398438 C 288.429688 86.710938 288.65625 87.210938 288.65625 87.902344 L 287.867188 87.902344 C 287.824219 87.570312 287.734375 87.316406 287.597656 87.136719 C 287.339844 86.8125 286.90625 86.652344 286.292969 86.652344 C 285.800781 86.652344 285.441406 86.757812 285.226562 86.964844 C 285.011719 87.171875 284.902344 87.414062 284.902344 87.691406 C 284.902344 87.992188 285.027344 88.214844 285.28125 88.355469 C 285.449219 88.445312 285.824219 88.558594 286.40625 88.695312 L 287.277344 88.890625 C 287.695312 88.988281 288.019531 89.117188 288.246094 89.285156 C 288.640625 89.574219 288.835938 89.996094 288.835938 90.546875 C 288.835938 91.230469 288.589844 91.722656 288.089844 92.019531 C 287.589844 92.3125 287.007812 92.460938 286.347656 92.460938 C 285.578125 92.460938 284.976562 92.265625 284.539062 91.871094 C 284.101562 91.480469 283.890625 90.949219 283.898438 90.28125 Z M 295.003906 86.96875 C 295.414062 87.515625 295.617188 88.21875 295.617188 89.074219 C 295.617188 90 295.382812 90.769531 294.914062 91.382812 C 294.363281 92.101562 293.578125 92.460938 292.554688 92.460938 C 291.601562 92.460938 290.851562 92.144531 290.308594 91.515625 C 289.820312 90.910156 289.578125 90.140625 289.578125 89.214844 C 289.578125 88.375 289.785156 87.65625 290.203125 87.0625 C 290.734375 86.296875 291.527344 85.914062 292.574219 85.914062 C 293.667969 85.914062 294.476562 86.265625 295.003906 86.96875 Z M 294.261719 90.914062 C 294.59375 90.386719 294.757812 89.777344 294.757812 89.085938 C 294.757812 88.359375 294.566406 87.773438 294.1875 87.328125 C 293.804688 86.882812 293.285156 86.660156 292.625 86.660156 C 291.980469 86.660156 291.460938 86.878906 291.054688 87.320312 C 290.648438 87.761719 290.445312 88.410156 290.445312 89.269531 C 290.445312 89.953125 290.621094 90.53125 290.96875 91.003906 C 291.316406 91.476562 291.878906 91.710938 292.65625 91.710938 C 293.398438 91.710938 293.933594 91.445312 294.261719 90.914062 Z M 296.613281 86.082031 L 297.605469 86.082031 L 300.734375 91.101562 L 300.734375 86.082031 L 301.535156 86.082031 L 301.535156 92.28125 L 300.59375 92.28125 L 297.414062 87.265625 L 297.414062 92.28125 L 296.613281 92.28125 Z M 296.613281 86.082031 "/>
<path style=" stroke:none;fill-rule:nonzero;fill:rgb(100%,89.802551%,59.999084%);fill-opacity:1;" d="M 259.839844 95.539062 L 324.640625 95.539062 L 324.640625 117.140625 L 259.839844 117.140625 Z M 259.839844 95.539062 "/>
<g clip-path="url(#clip3)" clip-rule="nonzero">
<path style=" stroke:none;fill-rule:nonzero;fill:rgb(0%,0%,0%);fill-opacity:1;" d="M 280.378906 103.003906 L 281.371094 103.003906 L 284.5 108.023438 L 284.5 103.003906 L 285.296875 103.003906 L 285.296875 109.199219 L 284.355469 109.199219 L 281.179688 104.183594 L 281.179688 109.199219 L 280.378906 109.199219 Z M 289.339844 108.140625 C 289.523438 107.757812 289.617188 107.332031 289.617188 106.867188 C 289.617188 106.445312 289.550781 106.101562 289.417969 105.835938 C 289.203125 105.421875 288.832031 105.214844 288.3125 105.214844 C 287.847656 105.214844 287.507812 105.390625 287.296875 105.746094 C 287.085938 106.097656 286.980469 106.527344 286.980469 107.027344 C 286.980469 107.507812 287.085938 107.910156 287.296875 108.230469 C 287.507812 108.550781 287.84375 108.710938 288.300781 108.710938 C 288.804688 108.710938 289.152344 108.519531 289.339844 108.140625 Z M 289.808594 105.132812 C 290.210938 105.519531 290.410156 106.09375 290.410156 106.847656 C 290.410156 107.574219 290.234375 108.175781 289.878906 108.652344 C 289.527344 109.125 288.976562 109.363281 288.230469 109.363281 C 287.609375 109.363281 287.117188 109.152344 286.75 108.734375 C 286.382812 108.3125 286.203125 107.75 286.203125 107.039062 C 286.203125 106.28125 286.394531 105.675781 286.78125 105.226562 C 287.164062 104.777344 287.683594 104.550781 288.332031 104.550781 C 288.914062 104.550781 289.40625 104.746094 289.808594 105.132812 Z M 291.3125 104.683594 L 292.035156 104.683594 L 292.035156 105.324219 C 292.25 105.058594 292.476562 104.867188 292.714844 104.753906 C 292.953125 104.636719 293.21875 104.582031 293.511719 104.582031 C 294.152344 104.582031 294.585938 104.804688 294.808594 105.25 C 294.933594 105.496094 294.996094 105.847656 294.996094 106.300781 L 294.996094 109.199219 L 294.222656 109.199219 L 294.222656 106.351562 C 294.222656 106.078125 294.183594 105.855469 294.101562 105.6875 C 293.964844 105.40625 293.722656 105.265625 293.367188 105.265625 C 293.1875 105.265625 293.039062 105.28125 292.925781 105.320312 C 292.714844 105.378906 292.535156 105.503906 292.375 105.691406 C 292.25 105.839844 292.167969 105.992188 292.128906 106.152344 C 292.089844 106.3125 292.074219 106.539062 292.074219 106.832031 L 292.074219 109.199219 L 291.3125 109.199219 Z M 299.101562 104.921875 C 299.421875 105.167969 299.613281 105.597656 299.675781 106.199219 L 298.9375 106.199219 C 298.894531 105.921875 298.792969 105.691406 298.632812 105.507812 C 298.472656 105.320312 298.214844 105.230469 297.859375 105.230469 C 297.375 105.230469 297.03125 105.464844 296.820312 105.9375 C 296.6875 106.246094 296.617188 106.625 296.617188 107.074219 C 296.617188 107.527344 296.714844 107.90625 296.90625 108.21875 C 297.097656 108.527344 297.398438 108.679688 297.808594 108.679688 C 298.125 108.679688 298.375 108.585938 298.558594 108.390625 C 298.742188 108.199219 298.867188 107.9375 298.9375 107.601562 L 299.675781 107.601562 C 299.59375 108.199219 299.382812 108.636719 299.042969 108.914062 C 298.707031 109.191406 298.277344 109.332031 297.75 109.332031 C 297.160156 109.332031 296.6875 109.113281 296.335938 108.683594 C 295.984375 108.25 295.808594 107.710938 295.808594 107.066406 C 295.808594 106.273438 296 105.65625 296.386719 105.214844 C 296.773438 104.773438 297.261719 104.550781 297.859375 104.550781 C 298.367188 104.550781 298.78125 104.675781 299.101562 104.921875 Z M 303.25 104.804688 C 303.550781 104.957031 303.78125 105.152344 303.9375 105.390625 C 304.089844 105.617188 304.191406 105.882812 304.242188 106.1875 C 304.289062 106.394531 304.308594 106.726562 304.308594 107.183594 L 300.996094 107.183594 C 301.011719 107.640625 301.121094 108.007812 301.324219 108.285156 C 301.523438 108.5625 301.839844 108.703125 302.261719 108.703125 C 302.660156 108.703125 302.976562 108.570312 303.210938 108.308594 C 303.347656 108.15625 303.445312 107.980469 303.5 107.78125 L 304.246094 107.78125 C 304.226562 107.949219 304.160156 108.132812 304.050781 108.335938 C 303.9375 108.542969 303.816406 108.707031 303.675781 108.835938 C 303.445312 109.0625 303.160156 109.214844 302.820312 109.292969 C 302.636719 109.335938 302.429688 109.359375 302.199219 109.359375 C 301.636719 109.359375 301.160156 109.15625 300.769531 108.746094 C 300.378906 108.335938 300.183594 107.765625 300.183594 107.027344 C 300.183594 106.300781 300.378906 105.710938 300.773438 105.257812 C 301.167969 104.808594 301.683594 104.582031 302.320312 104.582031 C 302.640625 104.582031 302.949219 104.65625 303.25 104.804688 Z M 303.527344 106.582031 C 303.5 106.25 303.425781 105.988281 303.3125 105.792969 C 303.105469 105.425781 302.757812 105.242188 302.273438 105.242188 C 301.921875 105.242188 301.628906 105.367188 301.394531 105.621094 C 301.160156 105.871094 301.03125 106.191406 301.019531 106.582031 Z M 303.527344 106.582031 "/>
</g>
<path style="fill-rule:nonzero;fill:rgb(100%,100%,100%);fill-opacity:1;stroke-width:1;stroke-linecap:butt;stroke-linejoin:miter;stroke:rgb(0%,0%,0%);stroke-opacity:1;stroke-miterlimit:10;" d="M 86.539062 7.921875 L 165.738281 7.921875 L 165.738281 29.519531 L 86.539062 29.519531 Z M 86.539062 7.921875 " transform="matrix(1,0,0,1,0.5,0.5)"/>
<g clip-path="url(#clip4)" clip-rule="nonzero">
<path style=" stroke:none;fill-rule:nonzero;fill:rgb(0%,0%,0%);fill-opacity:1;" d="M 103.257812 17.84375 C 103.652344 17.84375 103.964844 17.761719 104.195312 17.605469 C 104.421875 17.449219 104.539062 17.164062 104.539062 16.753906 C 104.539062 16.3125 104.378906 16.011719 104.058594 15.851562 C 103.886719 15.765625 103.65625 15.722656 103.371094 15.722656 L 101.320312 15.722656 L 101.320312 17.84375 Z M 100.480469 15.003906 L 103.347656 15.003906 C 103.820312 15.003906 104.210938 15.070312 104.515625 15.210938 C 105.097656 15.472656 105.390625 15.960938 105.390625 16.671875 C 105.390625 17.042969 105.3125 17.347656 105.160156 17.585938 C 105.007812 17.820312 104.792969 18.011719 104.515625 18.152344 C 104.757812 18.253906 104.941406 18.382812 105.0625 18.542969 C 105.183594 18.703125 105.253906 18.960938 105.269531 19.324219 L 105.296875 20.152344 C 105.304688 20.390625 105.324219 20.566406 105.355469 20.679688 C 105.40625 20.878906 105.496094 21.003906 105.625 21.0625 L 105.625 21.199219 L 104.597656 21.199219 C 104.570312 21.148438 104.546875 21.078125 104.53125 20.992188 C 104.511719 20.910156 104.5 20.746094 104.488281 20.503906 L 104.4375 19.46875 C 104.417969 19.066406 104.265625 18.792969 103.984375 18.65625 C 103.824219 18.582031 103.574219 18.542969 103.230469 18.542969 L 101.320312 18.542969 L 101.320312 21.199219 L 100.480469 21.199219 Z M 109.324219 16.804688 C 109.625 16.957031 109.851562 17.152344 110.011719 17.390625 C 110.164062 17.617188 110.265625 17.882812 110.316406 18.1875 C 110.359375 18.394531 110.382812 18.726562 110.382812 19.183594 L 107.070312 19.183594 C 107.085938 19.640625 107.191406 20.007812 107.394531 20.285156 C 107.597656 20.5625 107.910156 20.703125 108.335938 20.703125 C 108.734375 20.703125 109.050781 20.570312 109.285156 20.308594 C 109.421875 20.15625 109.515625 19.980469 109.570312 19.78125 L 110.320312 19.78125 C 110.300781 19.949219 110.234375 20.132812 110.121094 20.335938 C 110.011719 20.542969 109.886719 20.707031 109.75 20.835938 C 109.519531 21.0625 109.234375 21.214844 108.894531 21.292969 C 108.710938 21.335938 108.503906 21.359375 108.273438 21.359375 C 107.710938 21.359375 107.234375 21.15625 106.84375 20.746094 C 106.453125 20.335938 106.257812 19.765625 106.257812 19.027344 C 106.257812 18.300781 106.453125 17.710938 106.847656 17.257812 C 107.242188 16.808594 107.753906 16.582031 108.390625 16.582031 C 108.710938 16.582031 109.023438 16.65625 109.324219 16.804688 Z M 109.601562 18.582031 C 109.570312 18.25 109.5 17.988281 109.386719 17.792969 C 109.179688 17.425781 108.832031 17.242188 108.34375 17.242188 C 107.996094 17.242188 107.703125 17.367188 107.46875 17.621094 C 107.230469 17.871094 107.105469 18.191406 107.089844 18.582031 Z M 114.296875 16.921875 C 114.617188 17.167969 114.808594 17.597656 114.875 18.199219 L 114.136719 18.199219 C 114.089844 17.921875 113.988281 17.691406 113.828125 17.507812 C 113.667969 17.320312 113.410156 17.230469 113.054688 17.230469 C 112.570312 17.230469 112.226562 17.464844 112.019531 17.9375 C 111.882812 18.246094 111.816406 18.625 111.816406 19.074219 C 111.816406 19.527344 111.910156 19.90625 112.101562 20.21875 C 112.292969 20.527344 112.59375 20.679688 113.003906 20.679688 C 113.320312 20.679688 113.570312 20.585938 113.753906 20.390625 C 113.9375 20.199219 114.066406 19.9375 114.136719 19.601562 L 114.875 19.601562 C 114.789062 20.199219 114.578125 20.636719 114.242188 20.914062 C 113.902344 21.191406 113.472656 21.332031 112.945312 21.332031 C 112.355469 21.332031 111.882812 21.113281 111.53125 20.683594 C 111.179688 20.25 111.003906 19.710938 111.003906 19.066406 C 111.003906 18.273438 111.199219 17.65625 111.582031 17.214844 C 111.96875 16.773438 112.460938 16.550781 113.054688 16.550781 C 113.566406 16.550781 113.980469 16.675781 114.296875 16.921875 Z M 118.445312 16.804688 C 118.746094 16.957031 118.976562 17.152344 119.132812 17.390625 C 119.285156 17.617188 119.386719 17.882812 119.4375 18.1875 C 119.484375 18.394531 119.507812 18.726562 119.507812 19.183594 L 116.195312 19.183594 C 116.207031 19.640625 116.316406 20.007812 116.519531 20.285156 C 116.722656 20.5625 117.035156 20.703125 117.460938 20.703125 C 117.855469 20.703125 118.171875 20.570312 118.410156 20.308594 C 118.542969 20.15625 118.640625 19.980469 118.695312 19.78125 L 119.441406 19.78125 C 119.421875 19.949219 119.359375 20.132812 119.246094 20.335938 C 119.136719 20.542969 119.011719 20.707031 118.875 20.835938 C 118.640625 21.0625 118.355469 21.214844 118.015625 21.292969 C 117.832031 21.335938 117.628906 21.359375 117.398438 21.359375 C 116.835938 21.359375 116.355469 21.15625 115.964844 20.746094 C 115.574219 20.335938 115.378906 19.765625 115.378906 19.027344 C 115.378906 18.300781 115.578125 17.710938 115.96875 17.257812 C 116.363281 16.808594 116.878906 16.582031 117.515625 16.582031 C 117.835938 16.582031 118.144531 16.65625 118.445312 16.804688 Z M 118.726562 18.582031 C 118.695312 18.25 118.621094 17.988281 118.511719 17.792969 C 118.300781 17.425781 117.953125 17.242188 117.46875 17.242188 C 117.121094 17.242188 116.828125 17.367188 116.589844 17.621094 C 116.355469 17.871094 116.230469 18.191406 116.214844 18.582031 Z M 120.4375 16.703125 L 121.207031 16.703125 L 121.207031 21.199219 L 120.4375 21.199219 Z M 120.4375 15.003906 L 121.207031 15.003906 L 121.207031 15.863281 L 120.4375 15.863281 Z M 122.71875 16.683594 L 123.925781 20.359375 L 125.1875 16.683594 L 126.019531 16.683594 L 124.316406 21.199219 L 123.503906 21.199219 L 121.839844 16.683594 Z M 129.484375 16.804688 C 129.785156 16.957031 130.011719 17.152344 130.171875 17.390625 C 130.324219 17.617188 130.425781 17.882812 130.476562 18.1875 C 130.519531 18.394531 130.542969 18.726562 130.542969 19.183594 L 127.230469 19.183594 C 127.246094 19.640625 127.351562 20.007812 127.554688 20.285156 C 127.757812 20.5625 128.070312 20.703125 128.496094 20.703125 C 128.894531 20.703125 129.210938 20.570312 129.445312 20.308594 C 129.582031 20.15625 129.675781 19.980469 129.730469 19.78125 L 130.480469 19.78125 C 130.460938 19.949219 130.394531 20.132812 130.28125 20.335938 C 130.171875 20.542969 130.046875 20.707031 129.910156 20.835938 C 129.679688 21.0625 129.394531 21.214844 129.054688 21.292969 C 128.871094 21.335938 128.664062 21.359375 128.433594 21.359375 C 127.871094 21.359375 127.394531 21.15625 127.003906 20.746094 C 126.613281 20.335938 126.417969 19.765625 126.417969 19.027344 C 126.417969 18.300781 126.613281 17.710938 127.007812 17.257812 C 127.402344 16.808594 127.914062 16.582031 128.550781 16.582031 C 128.871094 16.582031 129.183594 16.65625 129.484375 16.804688 Z M 129.761719 18.582031 C 129.730469 18.25 129.660156 17.988281 129.546875 17.792969 C 129.339844 17.425781 128.992188 17.242188 128.503906 17.242188 C 128.15625 17.242188 127.863281 17.367188 127.628906 17.621094 C 127.390625 17.871094 127.265625 18.191406 127.25 18.582031 Z M 131.496094 16.683594 L 132.214844 16.683594 L 132.214844 17.460938 C 132.273438 17.308594 132.417969 17.125 132.648438 16.90625 C 132.878906 16.6875 133.148438 16.582031 133.449219 16.582031 C 133.460938 16.582031 133.484375 16.582031 133.519531 16.585938 C 133.554688 16.585938 133.609375 16.59375 133.691406 16.601562 L 133.691406 17.402344 C 133.648438 17.394531 133.605469 17.390625 133.566406 17.386719 C 133.53125 17.382812 133.488281 17.382812 133.441406 17.382812 C 133.0625 17.382812 132.765625 17.503906 132.5625 17.75 C 132.355469 17.996094 132.253906 18.28125 132.253906 18.601562 L 132.253906 21.199219 L 131.496094 21.199219 Z M 139.167969 17.621094 C 139.523438 17.621094 139.796875 17.574219 139.996094 17.476562 C 140.304688 17.320312 140.460938 17.042969 140.460938 16.640625 C 140.460938 16.234375 140.292969 15.960938 139.964844 15.820312 C 139.78125 15.742188 139.503906 15.703125 139.136719 15.703125 L 137.640625 15.703125 L 137.640625 17.621094 Z M 139.449219 20.484375 C 139.964844 20.484375 140.332031 20.332031 140.550781 20.035156 C 140.691406 19.847656 140.757812 19.621094 140.757812 19.351562 C 140.757812 18.902344 140.558594 18.59375 140.15625 18.433594 C 139.941406 18.34375 139.660156 18.300781 139.308594 18.300781 L 137.640625 18.300781 L 137.640625 20.484375 Z M 136.816406 15.003906 L 139.480469 15.003906 C 140.207031 15.003906 140.722656 15.21875 141.027344 15.652344 C 141.207031 15.910156 141.296875 16.203125 141.296875 16.539062 C 141.296875 16.929688 141.1875 17.25 140.964844 17.5 C 140.851562 17.632812 140.683594 17.753906 140.46875 17.863281 C 140.785156 17.984375 141.023438 18.121094 141.179688 18.273438 C 141.457031 18.542969 141.597656 18.914062 141.597656 19.390625 C 141.597656 19.789062 141.472656 20.152344 141.222656 20.472656 C 140.847656 20.957031 140.253906 21.199219 139.4375 21.199219 L 136.816406 21.199219 Z M 145.320312 16.683594 L 146.160156 16.683594 C 146.054688 16.972656 145.816406 17.632812 145.445312 18.664062 C 145.171875 19.441406 144.941406 20.074219 144.753906 20.5625 C 144.316406 21.714844 144.007812 22.417969 143.828125 22.671875 C 143.648438 22.925781 143.335938 23.050781 142.898438 23.050781 C 142.792969 23.050781 142.710938 23.046875 142.652344 23.039062 C 142.59375 23.03125 142.523438 23.015625 142.4375 22.992188 L 142.4375 22.300781 C 142.570312 22.335938 142.667969 22.359375 142.726562 22.367188 C 142.785156 22.378906 142.835938 22.382812 142.882812 22.382812 C 143.023438 22.382812 143.125 22.359375 143.191406 22.3125 C 143.257812 22.265625 143.3125 22.207031 143.359375 22.140625 C 143.371094 22.117188 143.421875 22.003906 143.511719 21.792969 C 143.597656 21.585938 143.660156 21.433594 143.699219 21.332031 L 142.03125 16.683594 L 142.890625 16.683594 L 144.101562 20.359375 Z M 146.96875 15.421875 L 147.738281 15.421875 L 147.738281 16.683594 L 148.460938 16.683594 L 148.460938 17.300781 L 147.738281 17.300781 L 147.738281 20.25 C 147.738281 20.410156 147.792969 20.515625 147.898438 20.566406 C 147.957031 20.597656 148.054688 20.613281 148.195312 20.613281 C 148.230469 20.613281 148.269531 20.613281 148.3125 20.613281 C 148.355469 20.609375 148.402344 20.605469 148.460938 20.601562 L 148.460938 21.199219 C 148.371094 21.226562 148.28125 21.242188 148.1875 21.253906 C 148.09375 21.265625 147.992188 21.273438 147.882812 21.273438 C 147.527344 21.273438 147.285156 21.179688 147.160156 21 C 147.035156 20.816406 146.96875 20.582031 146.96875 20.292969 L 146.96875 17.300781 L 146.359375 17.300781 L 146.359375 16.683594 L 146.96875 16.683594 Z M 152.027344 16.804688 C 152.328125 16.957031 152.558594 17.152344 152.714844 17.390625 C 152.867188 17.617188 152.96875 17.882812 153.019531 18.1875 C 153.066406 18.394531 153.085938 18.726562 153.085938 19.183594 L 149.777344 19.183594 C 149.789062 19.640625 149.898438 20.007812 150.101562 20.285156 C 150.304688 20.5625 150.617188 20.703125 151.042969 20.703125 C 151.4375 20.703125 151.753906 20.570312 151.992188 20.308594 C 152.125 20.15625 152.222656 19.980469 152.277344 19.78125 L 153.023438 19.78125 C 153.003906 19.949219 152.9375 20.132812 152.828125 20.335938 C 152.714844 20.542969 152.59375 20.707031 152.453125 20.835938 C 152.222656 21.0625 151.9375 21.214844 151.597656 21.292969 C 151.414062 21.335938 151.207031 21.359375 150.976562 21.359375 C 150.414062 21.359375 149.9375 21.15625 149.546875 20.746094 C 149.15625 20.335938 148.960938 19.765625 148.960938 19.027344 C 148.960938 18.300781 149.15625 17.710938 149.550781 17.257812 C 149.945312 16.808594 150.460938 16.582031 151.097656 16.582031 C 151.417969 16.582031 151.726562 16.65625 152.027344 16.804688 Z M 152.308594 18.582031 C 152.277344 18.25 152.203125 17.988281 152.089844 17.792969 C 151.882812 17.425781 151.535156 17.242188 151.050781 17.242188 C 150.699219 17.242188 150.410156 17.367188 150.171875 17.621094 C 149.9375 17.871094 149.8125 18.191406 149.796875 18.582031 Z M 152.308594 18.582031 "/>
</g>
<path style="fill-rule:nonzero;fill:rgb(100%,100%,100%);fill-opacity:1;stroke-width:1;stroke-linecap:butt;stroke-linejoin:miter;stroke:rgb(0%,0%,0%);stroke-opacity:1;stroke-miterlimit:10;" d="M 86.398438 29.519531 L 165.601562 29.519531 L 165.601562 50.398438 L 86.398438 50.398438 Z M 86.398438 29.519531 " transform="matrix(1,0,0,1,0.5,0.5)"/>
<path style=" stroke:none;fill-rule:nonzero;fill:rgb(0%,0%,0%);fill-opacity:1;" d="M 118.417969 40.351562 C 118.417969 40.875 118.34375 41.28125 118.1875 41.570312 C 117.902344 42.101562 117.355469 42.363281 116.550781 42.363281 C 116.085938 42.363281 115.691406 42.238281 115.359375 41.988281 C 115.03125 41.734375 114.867188 41.289062 114.867188 40.644531 L 114.867188 40.199219 L 115.65625 40.199219 L 115.65625 40.644531 C 115.65625 40.980469 115.730469 41.234375 115.882812 41.40625 C 116.03125 41.574219 116.265625 41.660156 116.585938 41.660156 C 117.03125 41.660156 117.324219 41.507812 117.460938 41.199219 C 117.546875 41.011719 117.589844 40.65625 117.589844 40.132812 L 117.589844 36.003906 L 118.417969 36.003906 Z M 120.246094 40.199219 C 120.265625 40.550781 120.347656 40.835938 120.496094 41.058594 C 120.773438 41.46875 121.265625 41.671875 121.96875 41.671875 C 122.28125 41.671875 122.570312 41.628906 122.828125 41.539062 C 123.328125 41.363281 123.578125 41.050781 123.578125 40.601562 C 123.578125 40.261719 123.472656 40.023438 123.261719 39.878906 C 123.050781 39.738281 122.714844 39.617188 122.257812 39.511719 L 121.417969 39.324219 C 120.871094 39.199219 120.484375 39.0625 120.253906 38.914062 C 119.859375 38.65625 119.664062 38.269531 119.664062 37.753906 C 119.664062 37.195312 119.855469 36.738281 120.242188 36.382812 C 120.628906 36.023438 121.171875 35.847656 121.878906 35.847656 C 122.527344 35.847656 123.082031 36.003906 123.535156 36.316406 C 123.988281 36.628906 124.214844 37.132812 124.214844 37.820312 L 123.425781 37.820312 C 123.386719 37.488281 123.296875 37.234375 123.15625 37.058594 C 122.902344 36.734375 122.46875 36.570312 121.855469 36.570312 C 121.359375 36.570312 121.003906 36.675781 120.785156 36.882812 C 120.570312 37.09375 120.460938 37.335938 120.460938 37.609375 C 120.460938 37.914062 120.589844 38.136719 120.839844 38.277344 C 121.007812 38.367188 121.382812 38.480469 121.96875 38.613281 L 122.835938 38.8125 C 123.257812 38.90625 123.578125 39.039062 123.808594 39.203125 C 124.199219 39.496094 124.398438 39.914062 124.398438 40.464844 C 124.398438 41.152344 124.148438 41.644531 123.648438 41.9375 C 123.148438 42.234375 122.570312 42.382812 121.910156 42.382812 C 121.136719 42.382812 120.535156 42.183594 120.097656 41.789062 C 119.664062 41.398438 119.449219 40.871094 119.457031 40.199219 Z M 130.5625 36.886719 C 130.972656 37.4375 131.179688 38.140625 131.179688 38.992188 C 131.179688 39.917969 130.945312 40.6875 130.472656 41.300781 C 129.921875 42.019531 129.136719 42.382812 128.117188 42.382812 C 127.164062 42.382812 126.414062 42.066406 125.867188 41.4375 C 125.378906 40.828125 125.136719 40.0625 125.136719 39.132812 C 125.136719 38.292969 125.34375 37.578125 125.761719 36.980469 C 126.296875 36.214844 127.085938 35.832031 128.132812 35.832031 C 129.226562 35.832031 130.035156 36.183594 130.5625 36.886719 Z M 129.824219 40.835938 C 130.152344 40.304688 130.316406 39.695312 130.316406 39.007812 C 130.316406 38.277344 130.128906 37.691406 129.746094 37.246094 C 129.367188 36.804688 128.84375 36.582031 128.183594 36.582031 C 127.542969 36.582031 127.019531 36.800781 126.613281 37.242188 C 126.210938 37.679688 126.007812 38.328125 126.007812 39.1875 C 126.007812 39.875 126.179688 40.453125 126.527344 40.921875 C 126.875 41.394531 127.4375 41.628906 128.21875 41.628906 C 128.957031 41.628906 129.492188 41.367188 129.824219 40.835938 Z M 132.175781 36.003906 L 133.164062 36.003906 L 136.296875 41.023438 L 136.296875 36.003906 L 137.09375 36.003906 L 137.09375 42.199219 L 136.152344 42.199219 L 132.976562 37.183594 L 132.976562 42.199219 L 132.175781 42.199219 Z M 132.175781 36.003906 "/>
<path style=" stroke:none;fill-rule:nonzero;fill:rgb(0%,0%,0%);fill-opacity:1;" d="M 206.386719 33.140625 C 206.574219 32.757812 206.667969 32.332031 206.667969 31.867188 C 206.667969 31.445312 206.597656 31.101562 206.464844 30.835938 C 206.25 30.421875 205.882812 30.214844 205.359375 30.214844 C 204.894531 30.214844 204.558594 30.390625 204.347656 30.746094 C 204.136719 31.097656 204.03125 31.527344 204.03125 32.027344 C 204.03125 32.507812 204.136719 32.910156 204.347656 33.230469 C 204.558594 33.550781 204.890625 33.710938 205.351562 33.710938 C 205.851562 33.710938 206.199219 33.519531 206.386719 33.140625 Z M 206.855469 30.132812 C 207.257812 30.519531 207.460938 31.09375 207.460938 31.847656 C 207.460938 32.574219 207.28125 33.175781 206.925781 33.652344 C 206.574219 34.125 206.023438 34.363281 205.277344 34.363281 C 204.65625 34.363281 204.164062 34.152344 203.796875 33.734375 C 203.433594 33.3125 203.25 32.75 203.25 32.039062 C 203.25 31.28125 203.441406 30.675781 203.828125 30.226562 C 204.210938 29.777344 204.730469 29.550781 205.378906 29.550781 C 205.960938 29.550781 206.453125 29.746094 206.855469 30.132812 Z M 208.382812 29.683594 L 209.101562 29.683594 L 209.101562 30.460938 C 209.164062 30.308594 209.308594 30.125 209.539062 29.90625 C 209.769531 29.6875 210.035156 29.582031 210.335938 29.582031 C 210.347656 29.582031 210.371094 29.582031 210.40625 29.585938 C 210.441406 29.585938 210.5 29.59375 210.578125 29.601562 L 210.578125 30.402344 C 210.535156 30.394531 210.492188 30.390625 210.457031 30.386719 C 210.417969 30.382812 210.375 30.382812 210.332031 30.382812 C 209.949219 30.382812 209.65625 30.503906 209.449219 30.75 C 209.242188 30.996094 209.140625 31.28125 209.140625 31.601562 L 209.140625 34.199219 L 208.382812 34.199219 Z M 208.382812 29.683594 "/>
<path style=" stroke:none;fill-rule:nonzero;fill:rgb(0%,0%,0%);fill-opacity:1;" d="M 167.828125 16.921875 L 167.828125 16.339844 C 168.375 16.285156 168.757812 16.195312 168.972656 16.070312 C 169.191406 15.945312 169.351562 15.652344 169.460938 15.183594 L 170.058594 15.183594 L 170.058594 21.199219 L 169.25 21.199219 L 169.25 16.921875 Z M 167.828125 16.921875 "/>
<path style=" stroke:none;fill-rule:nonzero;fill:rgb(0%,0%,0%);fill-opacity:1;" d="M 167.59375 40.839844 C 167.78125 40.457031 168.144531 40.105469 168.6875 39.792969 L 169.496094 39.324219 C 169.859375 39.113281 170.113281 38.933594 170.261719 38.78125 C 170.492188 38.550781 170.605469 38.28125 170.605469 37.980469 C 170.605469 37.628906 170.5 37.351562 170.289062 37.144531 C 170.078125 36.9375 169.796875 36.832031 169.445312 36.832031 C 168.925781 36.832031 168.566406 37.03125 168.367188 37.425781 C 168.261719 37.636719 168.199219 37.929688 168.191406 38.300781 L 167.417969 38.300781 C 167.425781 37.777344 167.523438 37.347656 167.707031 37.015625 C 168.039062 36.429688 168.617188 36.136719 169.449219 36.136719 C 170.144531 36.136719 170.648438 36.324219 170.96875 36.699219 C 171.285156 37.074219 171.445312 37.488281 171.445312 37.949219 C 171.445312 38.429688 171.277344 38.84375 170.9375 39.1875 C 170.738281 39.386719 170.386719 39.628906 169.878906 39.914062 L 169.300781 40.234375 C 169.023438 40.386719 168.808594 40.53125 168.648438 40.667969 C 168.367188 40.914062 168.191406 41.183594 168.117188 41.484375 L 171.417969 41.484375 L 171.417969 42.199219 L 167.269531 42.199219 C 167.296875 41.679688 167.40625 41.226562 167.59375 40.839844 Z M 167.59375 40.839844 "/>
<path style=" stroke:none;fill-rule:nonzero;fill:rgb(0%,0%,0%);fill-opacity:1;" d="M 333.828125 16.921875 L 333.828125 16.339844 C 334.375 16.285156 334.757812 16.195312 334.972656 16.070312 C 335.191406 15.945312 335.351562 15.652344 335.460938 15.183594 L 336.058594 15.183594 L 336.058594 21.199219 L 335.25 21.199219 L 335.25 16.921875 Z M 333.828125 16.921875 "/>
<path style=" stroke:none;fill-rule:nonzero;fill:rgb(0%,0%,0%);fill-opacity:1;" d="M 333.59375 40.839844 C 333.78125 40.457031 334.144531 40.105469 334.6875 39.792969 L 335.496094 39.324219 C 335.859375 39.113281 336.113281 38.933594 336.261719 38.78125 C 336.492188 38.550781 336.605469 38.28125 336.605469 37.980469 C 336.605469 37.628906 336.5 37.351562 336.289062 37.144531 C 336.078125 36.9375 335.796875 36.832031 335.445312 36.832031 C 334.925781 36.832031 334.566406 37.03125 334.367188 37.425781 C 334.261719 37.636719 334.199219 37.929688 334.191406 38.300781 L 333.417969 38.300781 C 333.425781 37.777344 333.523438 37.347656 333.707031 37.015625 C 334.039062 36.429688 334.617188 36.136719 335.449219 36.136719 C 336.144531 36.136719 336.648438 36.324219 336.96875 36.699219 C 337.285156 37.074219 337.445312 37.488281 337.445312 37.949219 C 337.445312 38.429688 337.277344 38.84375 336.9375 39.1875 C 336.738281 39.386719 336.386719 39.628906 335.878906 39.914062 L 335.300781 40.234375 C 335.023438 40.386719 334.808594 40.53125 334.648438 40.667969 C 334.367188 40.914062 334.191406 41.183594 334.117188 41.484375 L 337.417969 41.484375 L 337.417969 42.199219 L 333.269531 42.199219 C 333.296875 41.679688 333.40625 41.226562 333.59375 40.839844 Z M 333.59375 40.839844 "/>
</g>
</svg>
