<?xml version="1.0" encoding="UTF-8"?>
<svg xmlns="http://www.w3.org/2000/svg" xmlns:xlink="http://www.w3.org/1999/xlink" width="421pt" height="131pt" viewBox="0 0 421 131" version="1.1">
<defs>
<clipPath id="clip1">
  <path d="M 187 35 L 223.441406 35 L 223.441406 43 L 187 43 Z M 187 35 "/>
</clipPath>
<clipPath id="clip2">
  <path d="M 193 103 L 217.921875 103 L 217.921875 110 L 193 110 Z M 193 103 "/>
</clipPath>
</defs>
<g id="surface1">
<path style=" stroke:none;fill-rule:nonzero;fill:rgb(100%,100%,100%);fill-opacity:1;" d="M 0 0 L 421 0 L 421 130 L 0 130 Z M 0 0 "/>
<path style=" stroke:none;fill-rule:nonzero;fill:rgb(100%,100%,100%);fill-opacity:1;" d="M 0 0 L 420 0 L 420 130 L 0 130 Z M 0 0 "/>
<path style="fill-rule:nonzero;fill:rgb(100%,100%,100%);fill-opacity:1;stroke-width:1;stroke-linecap:butt;stroke-linejoin:miter;stroke:rgb(0%,0%,0%);stroke-opacity:1;stroke-miterlimit:10;" d="M 165.738281 7.921875 L 244.941406 7.921875 L 244.941406 29.519531 L 165.738281 29.519531 Z M 165.738281 7.921875 " transform="matrix(1,0,0,1,0.5,0.5)"/>
<path style=" stroke:none;fill-rule:nonzero;fill:rgb(0%,0%,0%);fill-opacity:1;" d="M 177.457031 15.003906 L 181.757812 15.003906 L 181.757812 15.761719 L 178.296875 15.761719 L 178.296875 17.644531 L 181.339844 17.644531 L 181.339844 18.382812 L 178.296875 18.382812 L 178.296875 21.199219 L 177.457031 21.199219 Z M 182.574219 16.683594 L 183.296875 16.683594 L 183.296875 17.460938 C 183.355469 17.308594 183.5 17.125 183.730469 16.90625 C 183.960938 16.6875 184.226562 16.582031 184.527344 16.582031 C 184.542969 16.582031 184.566406 16.582031 184.597656 16.585938 C 184.632812 16.585938 184.691406 16.59375 184.773438 16.601562 L 184.773438 17.402344 C 184.726562 17.394531 184.6875 17.390625 184.648438 17.386719 C 184.609375 17.382812 184.566406 17.382812 184.523438 17.382812 C 184.140625 17.382812 183.847656 17.503906 183.640625 17.75 C 183.4375 17.996094 183.332031 18.28125 183.332031 18.601562 L 183.332031 21.199219 L 182.574219 21.199219 Z M 186.246094 20.515625 C 186.40625 20.644531 186.59375 20.707031 186.8125 20.707031 C 187.082031 20.707031 187.339844 20.644531 187.589844 20.519531 C 188.011719 20.316406 188.222656 19.980469 188.222656 19.511719 L 188.222656 18.902344 C 188.128906 18.960938 188.011719 19.007812 187.863281 19.046875 C 187.71875 19.085938 187.574219 19.117188 187.433594 19.132812 L 186.972656 19.191406 C 186.699219 19.226562 186.492188 19.285156 186.355469 19.363281 C 186.121094 19.496094 186.003906 19.707031 186.003906 19.996094 C 186.003906 20.21875 186.085938 20.390625 186.246094 20.515625 Z M 187.84375 18.460938 C 188.019531 18.441406 188.132812 18.367188 188.195312 18.242188 C 188.226562 18.175781 188.246094 18.078125 188.246094 17.953125 C 188.246094 17.691406 188.152344 17.503906 187.96875 17.386719 C 187.785156 17.273438 187.519531 17.214844 187.175781 17.214844 C 186.78125 17.214844 186.5 17.320312 186.332031 17.535156 C 186.242188 17.652344 186.179688 17.828125 186.152344 18.0625 L 185.441406 18.0625 C 185.457031 17.503906 185.636719 17.117188 185.984375 16.898438 C 186.332031 16.679688 186.734375 16.570312 187.195312 16.570312 C 187.726562 16.570312 188.15625 16.671875 188.488281 16.875 C 188.816406 17.078125 188.984375 17.394531 188.984375 17.820312 L 188.984375 20.421875 C 188.984375 20.503906 189 20.566406 189.03125 20.613281 C 189.0625 20.660156 189.132812 20.683594 189.234375 20.683594 C 189.269531 20.683594 189.308594 20.683594 189.347656 20.679688 C 189.390625 20.675781 189.4375 20.667969 189.484375 20.660156 L 189.484375 21.222656 C 189.367188 21.253906 189.277344 21.277344 189.214844 21.285156 C 189.152344 21.292969 189.066406 21.296875 188.960938 21.296875 C 188.699219 21.296875 188.511719 21.203125 188.390625 21.019531 C 188.328125 20.921875 188.285156 20.78125 188.261719 20.601562 C 188.105469 20.804688 187.882812 20.980469 187.59375 21.128906 C 187.304688 21.277344 186.984375 21.351562 186.636719 21.351562 C 186.21875 21.351562 185.875 21.222656 185.609375 20.96875 C 185.34375 20.714844 185.210938 20.398438 185.210938 20.015625 C 185.210938 19.59375 185.339844 19.269531 185.601562 19.039062 C 185.863281 18.808594 186.207031 18.667969 186.632812 18.613281 Z M 192.75 16.863281 C 192.890625 16.960938 193.039062 17.105469 193.1875 17.292969 L 193.1875 16.722656 L 193.886719 16.722656 L 193.886719 20.832031 C 193.886719 21.40625 193.804688 21.859375 193.632812 22.191406 C 193.320312 22.804688 192.722656 23.109375 191.851562 23.109375 C 191.363281 23.109375 190.953125 23.003906 190.621094 22.785156 C 190.289062 22.566406 190.105469 22.226562 190.066406 21.761719 L 190.835938 21.761719 C 190.875 21.964844 190.945312 22.121094 191.058594 22.230469 C 191.226562 22.398438 191.5 22.484375 191.867188 22.484375 C 192.449219 22.484375 192.828125 22.277344 193.011719 21.867188 C 193.117188 21.625 193.167969 21.191406 193.15625 20.570312 C 193.003906 20.800781 192.824219 20.972656 192.609375 21.085938 C 192.394531 21.199219 192.113281 21.253906 191.761719 21.253906 C 191.273438 21.253906 190.84375 21.082031 190.476562 20.734375 C 190.109375 20.386719 189.925781 19.8125 189.925781 19.011719 C 189.925781 18.253906 190.109375 17.664062 190.480469 17.238281 C 190.851562 16.8125 191.296875 16.601562 191.820312 16.601562 C 192.175781 16.601562 192.484375 16.6875 192.75 16.863281 Z M 192.839844 17.675781 C 192.609375 17.40625 192.316406 17.273438 191.960938 17.273438 C 191.425781 17.273438 191.058594 17.523438 190.863281 18.023438 C 190.757812 18.289062 190.707031 18.640625 190.707031 19.074219 C 190.707031 19.582031 190.808594 19.96875 191.015625 20.234375 C 191.222656 20.5 191.5 20.632812 191.851562 20.632812 C 192.394531 20.632812 192.78125 20.386719 193 19.894531 C 193.125 19.617188 193.1875 19.292969 193.1875 18.921875 C 193.1875 18.363281 193.070312 17.949219 192.839844 17.675781 Z M 195.03125 16.683594 L 195.78125 16.683594 L 195.78125 17.324219 C 195.960938 17.101562 196.125 16.9375 196.269531 16.835938 C 196.519531 16.667969 196.804688 16.582031 197.121094 16.582031 C 197.480469 16.582031 197.773438 16.667969 197.992188 16.847656 C 198.113281 16.949219 198.226562 17.097656 198.328125 17.292969 C 198.496094 17.050781 198.695312 16.871094 198.921875 16.753906 C 199.152344 16.640625 199.40625 16.582031 199.691406 16.582031 C 200.296875 16.582031 200.710938 16.800781 200.929688 17.238281 C 201.050781 17.476562 201.109375 17.792969 201.109375 18.191406 L 201.109375 21.199219 L 200.320312 21.199219 L 200.320312 18.0625 C 200.320312 17.761719 200.246094 17.554688 200.09375 17.441406 C 199.945312 17.328125 199.761719 17.273438 199.542969 17.273438 C 199.246094 17.273438 198.988281 17.371094 198.773438 17.570312 C 198.558594 17.773438 198.449219 18.105469 198.449219 18.570312 L 198.449219 21.199219 L 197.679688 21.199219 L 197.679688 18.25 C 197.679688 17.945312 197.640625 17.722656 197.570312 17.582031 C 197.453125 17.371094 197.238281 17.265625 196.921875 17.265625 C 196.636719 17.265625 196.375 17.375 196.140625 17.597656 C 195.90625 17.820312 195.789062 18.222656 195.789062 18.804688 L 195.789062 21.199219 L 195.03125 21.199219 Z M 205.03125 16.804688 C 205.332031 16.957031 205.5625 17.152344 205.71875 17.390625 C 205.871094 17.617188 205.972656 17.882812 206.023438 18.1875 C 206.070312 18.394531 206.089844 18.726562 206.089844 19.183594 L 202.777344 19.183594 C 202.792969 19.640625 202.902344 20.007812 203.105469 20.285156 C 203.304688 20.5625 203.621094 20.703125 204.042969 20.703125 C 204.441406 20.703125 204.757812 20.570312 204.992188 20.308594 C 205.128906 20.15625 205.226562 19.980469 205.28125 19.78125 L 206.027344 19.78125 C 206.007812 19.949219 205.941406 20.132812 205.832031 20.335938 C 205.71875 20.542969 205.597656 20.707031 205.457031 20.835938 C 205.226562 21.0625 204.941406 21.214844 204.601562 21.292969 C 204.417969 21.335938 204.210938 21.359375 203.980469 21.359375 C 203.417969 21.359375 202.941406 21.15625 202.550781 20.746094 C 202.160156 20.335938 201.964844 19.765625 201.964844 19.027344 C 201.964844 18.300781 202.160156 17.710938 202.554688 17.257812 C 202.949219 16.808594 203.464844 16.582031 204.101562 16.582031 C 204.421875 16.582031 204.730469 16.65625 205.03125 16.804688 Z M 205.308594 18.582031 C 205.28125 18.25 205.207031 17.988281 205.09375 17.792969 C 204.886719 17.425781 204.539062 17.242188 204.054688 17.242188 C 203.703125 17.242188 203.410156 17.367188 203.175781 17.621094 C 202.941406 17.871094 202.8125 18.191406 202.800781 18.582031 Z M 207.023438 16.683594 L 207.742188 16.683594 L 207.742188 17.324219 C 207.957031 17.058594 208.183594 16.867188 208.421875 16.753906 C 208.660156 16.636719 208.925781 16.582031 209.21875 16.582031 C 209.859375 16.582031 210.292969 16.804688 210.519531 17.25 C 210.644531 17.496094 210.703125 17.847656 210.703125 18.300781 L 210.703125 21.199219 L 209.933594 21.199219 L 209.933594 18.351562 C 209.933594 18.078125 209.890625 17.855469 209.808594 17.6875 C 209.675781 17.40625 209.429688 17.265625 209.078125 17.265625 C 208.894531 17.265625 208.75 17.28125 208.632812 17.320312 C 208.425781 17.378906 208.242188 17.503906 208.085938 17.691406 C 207.957031 17.839844 207.875 17.992188 207.839844 18.152344 C 207.800781 18.3125 207.78125 18.539062 207.78125 18.832031 L 207.78125 21.199219 L 207.023438 21.199219 Z M 211.976562 15.421875 L 212.746094 15.421875 L 212.746094 16.683594 L 213.464844 16.683594 L 213.464844 17.300781 L 212.746094 17.300781 L 212.746094 20.25 C 212.746094 20.410156 212.796875 20.515625 212.90625 20.566406 C 212.964844 20.597656 213.0625 20.613281 213.199219 20.613281 C 213.238281 20.613281 213.277344 20.613281 213.320312 20.613281 C 213.359375 20.609375 213.410156 20.605469 213.464844 20.601562 L 213.464844 21.199219 C 213.378906 21.226562 213.289062 21.242188 213.195312 21.253906 C 213.101562 21.265625 213 21.273438 212.890625 21.273438 C 212.535156 21.273438 212.292969 21.179688 212.167969 21 C 212.039062 20.816406 211.976562 20.582031 211.976562 20.292969 L 211.976562 17.300781 L 211.367188 17.300781 L 211.367188 16.683594 L 211.976562 16.683594 Z M 219.046875 17.621094 C 219.402344 17.621094 219.679688 17.574219 219.875 17.476562 C 220.183594 17.320312 220.339844 17.042969 220.339844 16.640625 C 220.339844 16.234375 220.175781 15.960938 219.84375 15.820312 C 219.660156 15.742188 219.382812 15.703125 219.019531 15.703125 L 217.519531 15.703125 L 217.519531 17.621094 Z M 219.332031 20.484375 C 219.84375 20.484375 220.210938 20.332031 220.433594 20.035156 C 220.570312 19.847656 220.636719 19.621094 220.636719 19.351562 C 220.636719 18.902344 220.4375 18.59375 220.035156 18.433594 C 219.820312 18.34375 219.539062 18.300781 219.1875 18.300781 L 217.519531 18.300781 L 217.519531 20.484375 Z M 216.699219 15.003906 L 219.359375 15.003906 C 220.085938 15.003906 220.601562 15.21875 220.910156 15.652344 C 221.089844 15.910156 221.179688 16.203125 221.179688 16.539062 C 221.179688 16.929688 221.066406 17.25 220.84375 17.5 C 220.730469 17.632812 220.5625 17.753906 220.347656 17.863281 C 220.664062 17.984375 220.902344 18.121094 221.058594 18.273438 C 221.339844 18.542969 221.476562 18.914062 221.476562 19.390625 C 221.476562 19.789062 221.351562 20.152344 221.101562 20.472656 C 220.730469 20.957031 220.132812 21.199219 219.316406 21.199219 L 216.699219 21.199219 Z M 225.199219 16.683594 L 226.039062 16.683594 C 225.933594 16.972656 225.695312 17.632812 225.328125 18.664062 C 225.050781 19.441406 224.820312 20.074219 224.636719 20.5625 C 224.195312 21.714844 223.886719 22.417969 223.707031 22.671875 C 223.527344 22.925781 223.21875 23.050781 222.777344 23.050781 C 222.671875 23.050781 222.589844 23.046875 222.53125 23.039062 C 222.472656 23.03125 222.402344 23.015625 222.320312 22.992188 L 222.320312 22.300781 C 222.453125 22.335938 222.546875 22.359375 222.605469 22.367188 C 222.664062 22.378906 222.71875 22.382812 222.761719 22.382812 C 222.902344 22.382812 223.007812 22.359375 223.070312 22.3125 C 223.136719 22.265625 223.195312 22.207031 223.238281 22.140625 C 223.253906 22.117188 223.304688 22.003906 223.390625 21.792969 C 223.476562 21.585938 223.542969 21.433594 223.582031 21.332031 L 221.910156 16.683594 L 222.769531 16.683594 L 223.980469 20.359375 Z M 226.851562 15.421875 L 227.617188 15.421875 L 227.617188 16.683594 L 228.339844 16.683594 L 228.339844 17.300781 L 227.617188 17.300781 L 227.617188 20.25 C 227.617188 20.410156 227.671875 20.515625 227.777344 20.566406 C 227.835938 20.597656 227.9375 20.613281 228.074219 20.613281 C 228.109375 20.613281 228.148438 20.613281 228.191406 20.613281 C 228.234375 20.609375 228.28125 20.605469 228.339844 20.601562 L 228.339844 21.199219 C 228.253906 21.226562 228.160156 21.242188 228.066406 21.253906 C 227.972656 21.265625 227.871094 21.273438 227.761719 21.273438 C 227.40625 21.273438 227.167969 21.179688 227.039062 21 C 226.914062 20.816406 226.851562 20.582031 226.851562 20.292969 L 226.851562 17.300781 L 226.238281 17.300781 L 226.238281 16.683594 L 226.851562 16.683594 Z M 231.910156 16.804688 C 232.210938 16.957031 232.4375 17.152344 232.597656 17.390625 C 232.746094 17.617188 232.847656 17.882812 232.898438 18.1875 C 232.945312 18.394531 232.96875 18.726562 232.96875 19.183594 L 229.65625 19.183594 C 229.667969 19.640625 229.777344 20.007812 229.980469 20.285156 C 230.183594 20.5625 230.496094 20.703125 230.921875 20.703125 C 231.316406 20.703125 231.632812 20.570312 231.871094 20.308594 C 232.003906 20.15625 232.101562 19.980469 232.15625 19.78125 L 232.902344 19.78125 C 232.882812 19.949219 232.820312 20.132812 232.707031 20.335938 C 232.597656 20.542969 232.472656 20.707031 232.335938 20.835938 C 232.105469 21.0625 231.816406 21.214844 231.476562 21.292969 C 231.296875 21.335938 231.089844 21.359375 230.859375 21.359375 C 230.296875 21.359375 229.820312 21.15625 229.425781 20.746094 C 229.035156 20.335938 228.839844 19.765625 228.839844 19.027344 C 228.839844 18.300781 229.039062 17.710938 229.433594 17.257812 C 229.824219 16.808594 230.339844 16.582031 230.976562 16.582031 C 231.296875 16.582031 231.605469 16.65625 231.910156 16.804688 Z M 232.1875 18.582031 C 232.15625 18.25 232.085938 17.988281 231.972656 17.792969 C 231.761719 17.425781 231.417969 17.242188 230.929688 17.242188 C 230.582031 17.242188 230.289062 17.367188 230.050781 17.621094 C 229.816406 17.871094 229.691406 18.191406 229.675781 18.582031 Z M 232.1875 18.582031 "/>
<path style="fill-rule:nonzero;fill:rgb(100%,100%,100%);fill-opacity:1;stroke-width:1;stroke-linecap:butt;stroke-linejoin:miter;stroke:rgb(0%,0%,0%);stroke-opacity:1;stroke-miterlimit:10;" d="M 165.738281 29.519531 L 244.941406 29.519531 L 244.941406 123.121094 L 165.738281 123.121094 Z M 165.738281 29.519531 " transform="matrix(1,0,0,1,0.5,0.5)"/>
<g clip-path="url(#clip1)" clip-rule="nonzero">
<path style=" stroke:none;fill-rule:nonzero;fill:rgb(0%,0%,0%);fill-opacity:1;" d="M 187.378906 36.003906 L 188.371094 36.003906 L 191.5 41.023438 L 191.5 36.003906 L 192.296875 36.003906 L 192.296875 42.199219 L 191.355469 42.199219 L 188.179688 37.183594 L 188.179688 42.199219 L 187.378906 42.199219 Z M 194.332031 41.515625 C 194.492188 41.644531 194.683594 41.707031 194.902344 41.707031 C 195.167969 41.707031 195.425781 41.644531 195.679688 41.519531 C 196.101562 41.316406 196.3125 40.980469 196.3125 40.511719 L 196.3125 39.902344 C 196.21875 39.960938 196.097656 40.007812 195.953125 40.046875 C 195.804688 40.085938 195.664062 40.117188 195.523438 40.132812 L 195.0625 40.191406 C 194.785156 40.226562 194.578125 40.285156 194.441406 40.363281 C 194.207031 40.496094 194.089844 40.707031 194.089844 40.996094 C 194.089844 41.21875 194.171875 41.390625 194.332031 41.515625 Z M 195.929688 39.460938 C 196.105469 39.441406 196.222656 39.367188 196.28125 39.242188 C 196.316406 39.175781 196.332031 39.078125 196.332031 38.953125 C 196.332031 38.691406 196.238281 38.503906 196.054688 38.386719 C 195.871094 38.273438 195.609375 38.214844 195.265625 38.214844 C 194.867188 38.214844 194.585938 38.320312 194.421875 38.535156 C 194.328125 38.652344 194.265625 38.828125 194.238281 39.0625 L 193.53125 39.0625 C 193.542969 38.503906 193.726562 38.117188 194.074219 37.898438 C 194.417969 37.679688 194.824219 37.570312 195.28125 37.570312 C 195.8125 37.570312 196.246094 37.671875 196.578125 37.875 C 196.90625 38.078125 197.070312 38.394531 197.070312 38.820312 L 197.070312 41.421875 C 197.070312 41.503906 197.085938 41.566406 197.117188 41.613281 C 197.152344 41.660156 197.21875 41.683594 197.324219 41.683594 C 197.355469 41.683594 197.394531 41.683594 197.4375 41.679688 C 197.480469 41.675781 197.523438 41.667969 197.570312 41.660156 L 197.570312 42.222656 C 197.453125 42.253906 197.363281 42.277344 197.300781 42.285156 C 197.238281 42.292969 197.15625 42.296875 197.050781 42.296875 C 196.789062 42.296875 196.597656 42.203125 196.480469 42.019531 C 196.417969 41.921875 196.375 41.78125 196.347656 41.601562 C 196.195312 41.804688 195.972656 41.980469 195.683594 42.128906 C 195.390625 42.277344 195.074219 42.351562 194.722656 42.351562 C 194.304688 42.351562 193.960938 42.222656 193.695312 41.96875 C 193.429688 41.714844 193.296875 41.398438 193.296875 41.015625 C 193.296875 40.59375 193.429688 40.269531 193.691406 40.039062 C 193.953125 39.808594 194.296875 39.667969 194.71875 39.613281 Z M 202.851562 36.453125 C 203.285156 36.867188 203.527344 37.335938 203.574219 37.863281 L 202.753906 37.863281 C 202.664062 37.464844 202.476562 37.148438 202.199219 36.914062 C 201.921875 36.679688 201.535156 36.5625 201.035156 36.5625 C 200.425781 36.5625 199.929688 36.777344 199.554688 37.207031 C 199.179688 37.636719 198.992188 38.292969 198.992188 39.179688 C 198.992188 39.90625 199.160156 40.492188 199.5 40.945312 C 199.839844 41.394531 200.34375 41.621094 201.015625 41.621094 C 201.636719 41.621094 202.105469 41.382812 202.429688 40.910156 C 202.601562 40.660156 202.730469 40.328125 202.816406 39.921875 L 203.632812 39.921875 C 203.558594 40.574219 203.316406 41.121094 202.90625 41.5625 C 202.414062 42.09375 201.75 42.359375 200.917969 42.359375 C 200.195312 42.359375 199.589844 42.140625 199.101562 41.707031 C 198.457031 41.128906 198.136719 40.238281 198.136719 39.035156 C 198.136719 38.121094 198.378906 37.371094 198.863281 36.789062 C 199.382812 36.152344 200.105469 35.832031 201.027344 35.832031 C 201.808594 35.832031 202.417969 36.039062 202.851562 36.453125 Z M 204.566406 36.003906 L 205.324219 36.003906 L 205.324219 42.199219 L 204.566406 42.199219 Z M 211.285156 38.621094 C 211.640625 38.621094 211.914062 38.574219 212.109375 38.476562 C 212.421875 38.320312 212.574219 38.042969 212.574219 37.640625 C 212.574219 37.234375 212.410156 36.960938 212.082031 36.820312 C 211.894531 36.742188 211.621094 36.703125 211.253906 36.703125 L 209.757812 36.703125 L 209.757812 38.621094 Z M 211.566406 41.484375 C 212.082031 41.484375 212.449219 41.332031 212.667969 41.035156 C 212.804688 40.847656 212.875 40.621094 212.875 40.351562 C 212.875 39.902344 212.671875 39.59375 212.273438 39.433594 C 212.058594 39.34375 211.773438 39.300781 211.421875 39.300781 L 209.757812 39.300781 L 209.757812 41.484375 Z M 208.933594 36.003906 L 211.597656 36.003906 C 212.320312 36.003906 212.839844 36.21875 213.144531 36.652344 C 213.324219 36.910156 213.414062 37.203125 213.414062 37.539062 C 213.414062 37.929688 213.304688 38.25 213.082031 38.5 C 212.964844 38.632812 212.800781 38.753906 212.582031 38.863281 C 212.902344 38.984375 213.140625 39.121094 213.296875 39.273438 C 213.574219 39.542969 213.714844 39.914062 213.714844 40.390625 C 213.714844 40.789062 213.589844 41.152344 213.339844 41.472656 C 212.964844 41.957031 212.371094 42.199219 211.554688 42.199219 L 208.933594 42.199219 Z M 217.441406 41.140625 C 217.628906 40.757812 217.722656 40.332031 217.722656 39.867188 C 217.722656 39.445312 217.65625 39.101562 217.519531 38.835938 C 217.308594 38.421875 216.9375 38.214844 216.414062 38.214844 C 215.953125 38.214844 215.613281 38.390625 215.402344 38.746094 C 215.191406 39.097656 215.085938 39.527344 215.085938 40.027344 C 215.085938 40.507812 215.191406 40.910156 215.402344 41.230469 C 215.613281 41.550781 215.949219 41.710938 216.40625 41.710938 C 216.910156 41.710938 217.257812 41.519531 217.441406 41.140625 Z M 217.914062 38.132812 C 218.316406 38.519531 218.515625 39.09375 218.515625 39.847656 C 218.515625 40.574219 218.339844 41.175781 217.984375 41.652344 C 217.628906 42.125 217.082031 42.363281 216.335938 42.363281 C 215.714844 42.363281 215.21875 42.152344 214.855469 41.734375 C 214.488281 41.3125 214.304688 40.75 214.304688 40.039062 C 214.304688 39.28125 214.5 38.675781 214.882812 38.226562 C 215.269531 37.777344 215.789062 37.550781 216.4375 37.550781 C 217.019531 37.550781 217.511719 37.746094 217.914062 38.132812 Z M 218.988281 37.683594 L 219.972656 37.683594 L 221.007812 39.273438 L 222.058594 37.683594 L 222.984375 37.703125 L 221.460938 39.882812 L 223.050781 42.199219 L 222.082031 42.199219 L 220.957031 40.503906 L 219.871094 42.199219 L 218.90625 42.199219 L 220.5 39.882812 Z M 218.988281 37.683594 "/>
</g>
<path style="fill:none;stroke-width:1;stroke-linecap:butt;stroke-linejoin:miter;stroke:rgb(0%,0%,0%);stroke-opacity:1;stroke-dasharray:2.16,2.16;stroke-miterlimit:10;" d="M 172.941406 51.121094 L 237.738281 51.121094 L 237.738281 117.359375 L 172.941406 117.359375 Z M 172.941406 51.121094 " transform="matrix(1,0,0,1,0.5,0.5)"/>
<path style=" stroke:none;fill-rule:nonzero;fill:rgb(90.194702%,81.567383%,87.057495%);fill-opacity:1;" d="M 173.441406 52.339844 L 238.238281 52.339844 L 238.238281 73.941406 L 173.441406 73.941406 Z M 173.441406 52.339844 "/>
<path style=" stroke:none;fill-rule:nonzero;fill:rgb(0%,0%,0%);fill-opacity:1;" d="M 196.355469 59.003906 L 197.558594 59.003906 L 199.339844 64.242188 L 201.105469 59.003906 L 202.296875 59.003906 L 202.296875 65.199219 L 201.5 65.199219 L 201.5 61.542969 C 201.5 61.414062 201.503906 61.207031 201.507812 60.914062 C 201.515625 60.621094 201.515625 60.308594 201.515625 59.972656 L 199.75 65.199219 L 198.917969 65.199219 L 197.136719 59.972656 L 197.136719 60.164062 C 197.136719 60.316406 197.140625 60.546875 197.148438 60.855469 C 197.15625 61.167969 197.160156 61.394531 197.160156 61.542969 L 197.160156 65.199219 L 196.355469 65.199219 Z M 206.746094 62.660156 L 205.808594 59.921875 L 204.808594 62.660156 Z M 205.367188 59.003906 L 206.316406 59.003906 L 208.566406 65.199219 L 207.644531 65.199219 L 207.019531 63.34375 L 204.566406 63.34375 L 203.894531 65.199219 L 203.035156 65.199219 Z M 213.765625 59.453125 C 214.199219 59.867188 214.4375 60.335938 214.488281 60.863281 L 213.667969 60.863281 C 213.574219 60.464844 213.390625 60.148438 213.113281 59.914062 C 212.835938 59.679688 212.449219 59.5625 211.945312 59.5625 C 211.335938 59.5625 210.84375 59.777344 210.46875 60.207031 C 210.09375 60.636719 209.90625 61.292969 209.90625 62.179688 C 209.90625 62.90625 210.074219 63.492188 210.414062 63.945312 C 210.753906 64.394531 211.257812 64.621094 211.929688 64.621094 C 212.546875 64.621094 213.019531 64.382812 213.34375 63.910156 C 213.515625 63.660156 213.644531 63.328125 213.726562 62.921875 L 214.546875 62.921875 C 214.472656 63.574219 214.230469 64.121094 213.820312 64.5625 C 213.328125 65.09375 212.664062 65.359375 211.828125 65.359375 C 211.109375 65.359375 210.503906 65.140625 210.015625 64.707031 C 209.371094 64.128906 209.046875 63.238281 209.046875 62.035156 C 209.046875 61.121094 209.289062 60.371094 209.773438 59.789062 C 210.296875 59.152344 211.019531 58.832031 211.9375 58.832031 C 212.722656 58.832031 213.332031 59.039062 213.765625 59.453125 Z M 213.765625 59.453125 "/>
<path style=" stroke:none;fill-rule:nonzero;fill:rgb(60.391235%,78.038025%,74.900818%);fill-opacity:1;" d="M 173.441406 73.941406 L 238.238281 73.941406 L 238.238281 95.539062 L 173.441406 95.539062 Z M 173.441406 73.941406 "/>
<path style=" stroke:none;fill-rule:nonzero;fill:rgb(0%,0%,0%);fill-opacity:1;" d="M 185.976562 76.003906 L 190.496094 76.003906 L 190.496094 76.761719 L 186.796875 76.761719 L 186.796875 78.644531 L 190.21875 78.644531 L 190.21875 79.359375 L 186.796875 79.359375 L 186.796875 81.460938 L 190.558594 81.460938 L 190.558594 82.199219 L 185.976562 82.199219 Z M 191.558594 77.683594 L 192.277344 77.683594 L 192.277344 78.324219 C 192.492188 78.058594 192.71875 77.867188 192.957031 77.753906 C 193.195312 77.636719 193.460938 77.582031 193.753906 77.582031 C 194.394531 77.582031 194.828125 77.804688 195.054688 78.25 C 195.179688 78.496094 195.238281 78.847656 195.238281 79.300781 L 195.238281 82.199219 L 194.46875 82.199219 L 194.46875 79.351562 C 194.46875 79.078125 194.425781 78.855469 194.34375 78.6875 C 194.210938 78.40625 193.964844 78.265625 193.613281 78.265625 C 193.429688 78.265625 193.285156 78.28125 193.167969 78.320312 C 192.960938 78.378906 192.777344 78.503906 192.621094 78.691406 C 192.492188 78.839844 192.410156 78.992188 192.375 79.152344 C 192.335938 79.3125 192.316406 79.539062 192.316406 79.832031 L 192.316406 82.199219 L 191.558594 82.199219 Z M 199.34375 77.921875 C 199.664062 78.167969 199.855469 78.597656 199.921875 79.199219 L 199.183594 79.199219 C 199.136719 78.921875 199.035156 78.691406 198.875 78.507812 C 198.714844 78.320312 198.457031 78.230469 198.101562 78.230469 C 197.621094 78.230469 197.273438 78.464844 197.066406 78.9375 C 196.929688 79.246094 196.863281 79.625 196.863281 80.074219 C 196.863281 80.527344 196.957031 80.90625 197.148438 81.21875 C 197.339844 81.527344 197.640625 81.679688 198.050781 81.679688 C 198.367188 81.679688 198.617188 81.585938 198.800781 81.390625 C 198.984375 81.199219 199.113281 80.9375 199.183594 80.601562 L 199.921875 80.601562 C 199.835938 81.199219 199.625 81.636719 199.289062 81.914062 C 198.949219 82.191406 198.519531 82.332031 197.992188 82.332031 C 197.402344 82.332031 196.929688 82.113281 196.578125 81.683594 C 196.226562 81.25 196.050781 80.710938 196.050781 80.066406 C 196.050781 79.273438 196.246094 78.65625 196.628906 78.214844 C 197.015625 77.773438 197.507812 77.550781 198.101562 77.550781 C 198.613281 77.550781 199.027344 77.675781 199.34375 77.921875 Z M 200.703125 77.683594 L 201.421875 77.683594 L 201.421875 78.460938 C 201.480469 78.308594 201.628906 78.125 201.859375 77.90625 C 202.089844 77.6875 202.355469 77.582031 202.65625 77.582031 C 202.667969 77.582031 202.691406 77.582031 202.726562 77.585938 C 202.761719 77.585938 202.816406 77.59375 202.898438 77.601562 L 202.898438 78.402344 C 202.855469 78.394531 202.8125 78.390625 202.773438 78.386719 C 202.738281 78.382812 202.695312 78.382812 202.652344 78.382812 C 202.269531 78.382812 201.972656 78.503906 201.769531 78.75 C 201.5625 78.996094 201.460938 79.28125 201.460938 79.601562 L 201.460938 82.199219 L 200.703125 82.199219 Z M 206.371094 77.683594 L 207.210938 77.683594 C 207.105469 77.972656 206.867188 78.632812 206.5 79.664062 C 206.222656 80.441406 205.992188 81.074219 205.804688 81.5625 C 205.367188 82.714844 205.058594 83.417969 204.878906 83.671875 C 204.699219 83.925781 204.390625 84.050781 203.949219 84.050781 C 203.84375 84.050781 203.761719 84.046875 203.703125 84.039062 C 203.644531 84.03125 203.574219 84.015625 203.492188 83.992188 L 203.492188 83.300781 C 203.621094 83.335938 203.71875 83.359375 203.777344 83.367188 C 203.835938 83.378906 203.886719 83.382812 203.933594 83.382812 C 204.074219 83.382812 204.175781 83.359375 204.242188 83.3125 C 204.308594 83.265625 204.363281 83.207031 204.410156 83.140625 C 204.425781 83.117188 204.476562 83.003906 204.5625 82.792969 C 204.648438 82.585938 204.710938 82.433594 204.75 82.332031 L 203.082031 77.683594 L 203.941406 77.683594 L 205.152344 81.359375 Z M 210.660156 81.246094 C 210.894531 80.949219 211.011719 80.503906 211.011719 79.914062 C 211.011719 79.554688 210.960938 79.242188 210.855469 78.984375 C 210.660156 78.488281 210.300781 78.238281 209.777344 78.238281 C 209.25 78.238281 208.890625 78.5 208.695312 79.027344 C 208.59375 79.308594 208.539062 79.664062 208.539062 80.097656 C 208.539062 80.449219 208.59375 80.746094 208.695312 80.988281 C 208.894531 81.457031 209.253906 81.691406 209.777344 81.691406 C 210.128906 81.691406 210.425781 81.542969 210.660156 81.246094 Z M 207.808594 77.703125 L 208.546875 77.703125 L 208.546875 78.300781 C 208.699219 78.097656 208.867188 77.9375 209.046875 77.824219 C 209.300781 77.65625 209.601562 77.570312 209.949219 77.570312 C 210.460938 77.570312 210.894531 77.769531 211.253906 78.160156 C 211.609375 78.554688 211.789062 79.113281 211.789062 79.839844 C 211.789062 80.824219 211.53125 81.527344 211.015625 81.949219 C 210.691406 82.21875 210.3125 82.351562 209.878906 82.351562 C 209.539062 82.351562 209.25 82.277344 209.019531 82.128906 C 208.886719 82.042969 208.734375 81.898438 208.570312 81.695312 L 208.570312 84 L 207.808594 84 Z M 212.824219 76.421875 L 213.59375 76.421875 L 213.59375 77.683594 L 214.3125 77.683594 L 214.3125 78.300781 L 213.59375 78.300781 L 213.59375 81.25 C 213.59375 81.410156 213.644531 81.515625 213.753906 81.566406 C 213.8125 81.597656 213.910156 81.613281 214.046875 81.613281 C 214.085938 81.613281 214.125 81.613281 214.167969 81.613281 C 214.207031 81.609375 214.257812 81.605469 214.3125 81.601562 L 214.3125 82.199219 C 214.226562 82.226562 214.136719 82.242188 214.042969 82.253906 C 213.949219 82.265625 213.847656 82.273438 213.734375 82.273438 C 213.382812 82.273438 213.140625 82.179688 213.015625 82 C 212.886719 81.816406 212.824219 81.582031 212.824219 81.292969 L 212.824219 78.300781 L 212.214844 78.300781 L 212.214844 77.683594 L 212.824219 77.683594 Z M 217.882812 77.804688 C 218.183594 77.957031 218.414062 78.152344 218.570312 78.390625 C 218.722656 78.617188 218.824219 78.882812 218.875 79.1875 C 218.917969 79.394531 218.941406 79.726562 218.941406 80.183594 L 215.628906 80.183594 C 215.644531 80.640625 215.753906 81.007812 215.957031 81.285156 C 216.15625 81.5625 216.472656 81.703125 216.894531 81.703125 C 217.292969 81.703125 217.609375 81.570312 217.84375 81.308594 C 217.980469 81.15625 218.074219 80.980469 218.132812 80.78125 L 218.878906 80.78125 C 218.859375 80.949219 218.792969 81.132812 218.683594 81.335938 C 218.570312 81.542969 218.445312 81.707031 218.308594 81.835938 C 218.078125 82.0625 217.792969 82.214844 217.453125 82.292969 C 217.269531 82.335938 217.0625 82.359375 216.832031 82.359375 C 216.269531 82.359375 215.792969 82.15625 215.402344 81.746094 C 215.011719 81.335938 214.816406 80.765625 214.816406 80.027344 C 214.816406 79.300781 215.011719 78.710938 215.40625 78.257812 C 215.800781 77.808594 216.316406 77.582031 216.949219 77.582031 C 217.273438 77.582031 217.582031 77.65625 217.882812 77.804688 Z M 218.160156 79.582031 C 218.128906 79.25 218.058594 78.988281 217.945312 78.792969 C 217.738281 78.425781 217.390625 78.242188 216.90625 78.242188 C 216.554688 78.242188 216.261719 78.367188 216.027344 78.621094 C 215.789062 78.871094 215.664062 79.191406 215.652344 79.582031 Z M 220.660156 81.207031 C 220.867188 81.535156 221.195312 81.699219 221.648438 81.699219 C 222 81.699219 222.289062 81.546875 222.515625 81.246094 C 222.742188 80.941406 222.855469 80.507812 222.855469 79.941406 C 222.855469 79.371094 222.738281 78.949219 222.503906 78.675781 C 222.273438 78.402344 221.984375 78.265625 221.640625 78.265625 C 221.257812 78.265625 220.949219 78.410156 220.710938 78.703125 C 220.472656 78.996094 220.355469 79.425781 220.355469 79.992188 C 220.355469 80.476562 220.457031 80.882812 220.660156 81.207031 Z M 222.367188 77.820312 C 222.5 77.90625 222.65625 78.054688 222.828125 78.265625 L 222.828125 75.980469 L 223.554688 75.980469 L 223.554688 82.199219 L 222.871094 82.199219 L 222.871094 81.570312 C 222.695312 81.851562 222.484375 82.050781 222.242188 82.175781 C 222.003906 82.296875 221.726562 82.359375 221.414062 82.359375 C 220.910156 82.359375 220.472656 82.148438 220.105469 81.726562 C 219.738281 81.300781 219.550781 80.738281 219.550781 80.035156 C 219.550781 79.378906 219.71875 78.808594 220.054688 78.324219 C 220.394531 77.84375 220.871094 77.601562 221.496094 77.601562 C 221.84375 77.601562 222.132812 77.675781 222.367188 77.820312 Z M 222.367188 77.820312 "/>
<path style=" stroke:none;fill-rule:nonzero;fill:rgb(0%,0%,0%);fill-opacity:1;" d="M 196.859375 90.433594 C 196.859375 90.957031 196.78125 91.363281 196.628906 91.652344 C 196.339844 92.179688 195.796875 92.445312 194.992188 92.445312 C 194.527344 92.445312 194.128906 92.320312 193.800781 92.066406 C 193.472656 91.816406 193.308594 91.367188 193.308594 90.722656 L 193.308594 90.28125 L 194.097656 90.28125 L 194.097656 90.722656 C 194.097656 91.0625 194.171875 91.316406 194.320312 91.484375 C 194.472656 91.65625 194.707031 91.738281 195.023438 91.738281 C 195.472656 91.738281 195.765625 91.585938 195.902344 91.28125 C 195.988281 91.089844 196.027344 90.734375 196.027344 90.210938 L 196.027344 86.082031 L 196.859375 86.082031 Z M 198.6875 90.28125 C 198.707031 90.632812 198.789062 90.917969 198.933594 91.136719 C 199.214844 91.546875 199.703125 91.753906 200.40625 91.753906 C 200.722656 91.753906 201.007812 91.707031 201.269531 91.617188 C 201.769531 91.441406 202.019531 91.132812 202.019531 90.679688 C 202.019531 90.34375 201.914062 90.101562 201.703125 89.960938 C 201.488281 89.820312 201.15625 89.695312 200.699219 89.59375 L 199.859375 89.402344 C 199.3125 89.277344 198.921875 89.144531 198.695312 88.992188 C 198.300781 88.734375 198.105469 88.347656 198.105469 87.832031 C 198.105469 87.277344 198.296875 86.820312 198.683594 86.460938 C 199.066406 86.105469 199.613281 85.925781 200.320312 85.925781 C 200.96875 85.925781 201.519531 86.082031 201.976562 86.398438 C 202.429688 86.710938 202.65625 87.210938 202.65625 87.902344 L 201.867188 87.902344 C 201.824219 87.570312 201.734375 87.316406 201.597656 87.136719 C 201.339844 86.8125 200.90625 86.652344 200.292969 86.652344 C 199.800781 86.652344 199.441406 86.757812 199.226562 86.964844 C 199.011719 87.171875 198.902344 87.414062 198.902344 87.691406 C 198.902344 87.992188 199.027344 88.214844 199.28125 88.355469 C 199.449219 88.445312 199.824219 88.558594 200.40625 88.695312 L 201.277344 88.890625 C 201.695312 88.988281 202.019531 89.117188 202.246094 89.285156 C 202.640625 89.574219 202.835938 89.996094 202.835938 90.546875 C 202.835938 91.230469 202.589844 91.722656 202.089844 92.019531 C 201.589844 92.3125 201.007812 92.460938 200.347656 92.460938 C 199.578125 92.460938 198.976562 92.265625 198.539062 91.871094 C 198.101562 91.480469 197.890625 90.949219 197.898438 90.28125 Z M 209.003906 86.96875 C 209.414062 87.515625 209.617188 88.21875 209.617188 89.074219 C 209.617188 90 209.382812 90.769531 208.914062 91.382812 C 208.363281 92.101562 207.578125 92.460938 206.554688 92.460938 C 205.601562 92.460938 204.851562 92.144531 204.308594 91.515625 C 203.820312 90.910156 203.578125 90.140625 203.578125 89.214844 C 203.578125 88.375 203.785156 87.65625 204.203125 87.0625 C 204.734375 86.296875 205.527344 85.914062 206.574219 85.914062 C 207.667969 85.914062 208.476562 86.265625 209.003906 86.96875 Z M 208.261719 90.914062 C 208.59375 90.386719 208.757812 89.777344 208.757812 89.085938 C 208.757812 88.359375 208.566406 87.773438 208.1875 87.328125 C 207.804688 86.882812 207.285156 86.660156 206.625 86.660156 C 205.980469 86.660156 205.460938 86.878906 205.054688 87.320312 C 204.648438 87.761719 204.445312 88.410156 204.445312 89.269531 C 204.445312 89.953125 204.621094 90.53125 204.96875 91.003906 C 205.316406 91.476562 205.878906 91.710938 206.65625 91.710938 C 207.398438 91.710938 207.933594 91.445312 208.261719 90.914062 Z M 210.613281 86.082031 L 211.605469 86.082031 L 214.734375 91.101562 L 214.734375 86.082031 L 215.535156 86.082031 L 215.535156 92.28125 L 214.59375 92.28125 L 211.414062 87.265625 L 211.414062 92.28125 L 210.613281 92.28125 Z M 210.613281 86.082031 "/>
<path style=" stroke:none;fill-rule:nonzero;fill:rgb(100%,89.802551%,59.999084%);fill-opacity:1;" d="M 173.441406 95.539062 L 238.238281 95.539062 L 238.238281 117.140625 L 173.441406 117.140625 Z M 173.441406 95.539062 "/>
<g clip-path="url(#clip2)" clip-rule="nonzero">
<path style=" stroke:none;fill-rule:nonzero;fill:rgb(0%,0%,0%);fill-opacity:1;" d="M 193.378906 103.003906 L 194.371094 103.003906 L 197.5 108.023438 L 197.5 103.003906 L 198.296875 103.003906 L 198.296875 109.199219 L 197.355469 109.199219 L 194.179688 104.183594 L 194.179688 109.199219 L 193.378906 109.199219 Z M 202.339844 108.140625 C 202.523438 107.757812 202.617188 107.332031 202.617188 106.867188 C 202.617188 106.445312 202.550781 106.101562 202.417969 105.835938 C 202.203125 105.421875 201.832031 105.214844 201.3125 105.214844 C 200.847656 105.214844 200.507812 105.390625 200.296875 105.746094 C 200.085938 106.097656 199.980469 106.527344 199.980469 107.027344 C 199.980469 107.507812 200.085938 107.910156 200.296875 108.230469 C 200.507812 108.550781 200.84375 108.710938 201.300781 108.710938 C 201.804688 108.710938 202.152344 108.519531 202.339844 108.140625 Z M 202.808594 105.132812 C 203.210938 105.519531 203.410156 106.09375 203.410156 106.847656 C 203.410156 107.574219 203.234375 108.175781 202.878906 108.652344 C 202.527344 109.125 201.976562 109.363281 201.230469 109.363281 C 200.609375 109.363281 200.117188 109.152344 199.75 108.734375 C 199.382812 108.3125 199.203125 107.75 199.203125 107.039062 C 199.203125 106.28125 199.394531 105.675781 199.78125 105.226562 C 200.164062 104.777344 200.683594 104.550781 201.332031 104.550781 C 201.914062 104.550781 202.40625 104.746094 202.808594 105.132812 Z M 204.3125 104.683594 L 205.035156 104.683594 L 205.035156 105.324219 C 205.25 105.058594 205.476562 104.867188 205.714844 104.753906 C 205.953125 104.636719 206.21875 104.582031 206.511719 104.582031 C 207.152344 104.582031 207.585938 104.804688 207.808594 105.25 C 207.933594 105.496094 207.996094 105.847656 207.996094 106.300781 L 207.996094 109.199219 L 207.222656 109.199219 L 207.222656 106.351562 C 207.222656 106.078125 207.183594 105.855469 207.101562 105.6875 C 206.964844 105.40625 206.722656 105.265625 206.367188 105.265625 C 206.1875 105.265625 206.039062 105.28125 205.925781 105.320312 C 205.714844 105.378906 205.535156 105.503906 205.375 105.691406 C 205.25 105.839844 205.167969 105.992188 205.128906 106.152344 C 205.089844 106.3125 205.074219 106.539062 205.074219 106.832031 L 205.074219 109.199219 L 204.3125 109.199219 Z M 212.101562 104.921875 C 212.421875 105.167969 212.613281 105.597656 212.675781 106.199219 L 211.9375 106.199219 C 211.894531 105.921875 211.792969 105.691406 211.632812 105.507812 C 211.472656 105.320312 211.214844 105.230469 210.859375 105.230469 C 210.375 105.230469 210.03125 105.464844 209.820312 105.9375 C 209.6875 106.246094 209.617188 106.625 209.617188 107.074219 C 209.617188 107.527344 209.714844 107.90625 209.90625 108.21875 C 210.097656 108.527344 210.398438 108.679688 210.808594 108.679688 C 211.125 108.679688 211.375 108.585938 211.558594 108.390625 C 211.742188 108.199219 211.867188 107.9375 211.9375 107.601562 L 212.675781 107.601562 C 212.59375 108.199219 212.382812 108.636719 212.042969 108.914062 C 211.707031 109.191406 211.277344 109.332031 210.75 109.332031 C 210.160156 109.332031 209.6875 109.113281 209.335938 108.683594 C 208.984375 108.25 208.808594 107.710938 208.808594 107.066406 C 208.808594 106.273438 209 105.65625 209.386719 105.214844 C 209.773438 104.773438 210.261719 104.550781 210.859375 104.550781 C 211.367188 104.550781 211.78125 104.675781 212.101562 104.921875 Z M 216.25 104.804688 C 216.550781 104.957031 216.78125 105.152344 216.9375 105.390625 C 217.089844 105.617188 217.191406 105.882812 217.242188 106.1875 C 217.289062 106.394531 217.308594 106.726562 217.308594 107.183594 L 213.996094 107.183594 C 214.011719 107.640625 214.121094 108.007812 214.324219 108.285156 C 214.523438 108.5625 214.839844 108.703125 215.261719 108.703125 C 215.660156 108.703125 215.976562 108.570312 216.210938 108.308594 C 216.347656 108.15625 216.445312 107.980469 216.5 107.78125 L 217.246094 107.78125 C 217.226562 107.949219 217.160156 108.132812 217.050781 108.335938 C 216.9375 108.542969 216.816406 108.707031 216.675781 108.835938 C 216.445312 109.0625 216.160156 109.214844 215.820312 109.292969 C 215.636719 109.335938 215.429688 109.359375 215.199219 109.359375 C 214.636719 109.359375 214.160156 109.15625 213.769531 108.746094 C 213.378906 108.335938 213.183594 107.765625 213.183594 107.027344 C 213.183594 106.300781 213.378906 105.710938 213.773438 105.257812 C 214.167969 104.808594 214.683594 104.582031 215.320312 104.582031 C 215.640625 104.582031 215.949219 104.65625 216.25 104.804688 Z M 216.527344 106.582031 C 216.5 106.25 216.425781 105.988281 216.3125 105.792969 C 216.105469 105.425781 215.757812 105.242188 215.273438 105.242188 C 214.921875 105.242188 214.628906 105.367188 214.394531 105.621094 C 214.160156 105.871094 214.03125 106.191406 214.019531 106.582031 Z M 216.527344 106.582031 "/>
</g>
<path style=" stroke:none;fill-rule:nonzero;fill:rgb(0%,0%,0%);fill-opacity:1;" d="M 246.828125 16.921875 L 246.828125 16.339844 C 247.375 16.285156 247.757812 16.195312 247.972656 16.070312 C 248.191406 15.945312 248.351562 15.652344 248.460938 15.183594 L 249.058594 15.183594 L 249.058594 21.199219 L 248.25 21.199219 L 248.25 16.921875 Z M 246.828125 16.921875 "/>
<path style=" stroke:none;fill-rule:nonzero;fill:rgb(0%,0%,0%);fill-opacity:1;" d="M 246.59375 40.839844 C 246.78125 40.457031 247.144531 40.105469 247.6875 39.792969 L 248.496094 39.324219 C 248.859375 39.113281 249.113281 38.933594 249.261719 38.78125 C 249.492188 38.550781 249.605469 38.28125 249.605469 37.980469 C 249.605469 37.628906 249.5 37.351562 249.289062 37.144531 C 249.078125 36.9375 248.796875 36.832031 248.445312 36.832031 C 247.925781 36.832031 247.566406 37.03125 247.367188 37.425781 C 247.261719 37.636719 247.199219 37.929688 247.191406 38.300781 L 246.417969 38.300781 C 246.425781 37.777344 246.523438 37.347656 246.707031 37.015625 C 247.039062 36.429688 247.617188 36.136719 248.449219 36.136719 C 249.144531 36.136719 249.648438 36.324219 249.96875 36.699219 C 250.285156 37.074219 250.445312 37.488281 250.445312 37.949219 C 250.445312 38.429688 250.277344 38.84375 249.9375 39.1875 C 249.738281 39.386719 249.386719 39.628906 248.878906 39.914062 L 248.300781 40.234375 C 248.023438 40.386719 247.808594 40.53125 247.648438 40.667969 C 247.367188 40.914062 247.191406 41.183594 247.117188 41.484375 L 250.417969 41.484375 L 250.417969 42.199219 L 246.269531 42.199219 C 246.296875 41.679688 246.40625 41.226562 246.59375 40.839844 Z M 246.59375 40.839844 "/>
</g>
</svg>
