<?xml version="1.0" encoding="UTF-8"?>
<svg xmlns="http://www.w3.org/2000/svg" xmlns:xlink="http://www.w3.org/1999/xlink" width="722pt" height="62pt" viewBox="0 0 722 62" version="1.1">
<g id="surface1">
<rect x="0" y="0" width="722" height="62" style="fill:rgb(100%,100%,100%);fill-opacity:1;stroke:none;"/>
<path style="fill-rule:nonzero;fill:rgb(100%,89.802551%,59.999084%);fill-opacity:1;stroke-width:1;stroke-linecap:butt;stroke-linejoin:miter;stroke:rgb(0%,0%,0%);stroke-opacity:1;stroke-miterlimit:10;" d="M 0 0 L 480 0 L 480 60 L 0 60 Z M 0 0 " transform="matrix(1,0,0,1,0.5,0.5)"/>
<path style=" stroke:none;fill-rule:nonzero;fill:rgb(0%,0%,0%);fill-opacity:1;" d="M 227.40625 19.019531 C 228.007812 19.59375 228.339844 20.246094 228.40625 20.976562 L 227.269531 20.976562 C 227.140625 20.421875 226.886719 19.980469 226.5 19.65625 C 226.117188 19.332031 225.574219 19.171875 224.878906 19.171875 C 224.03125 19.171875 223.347656 19.46875 222.828125 20.066406 C 222.304688 20.660156 222.042969 21.574219 222.042969 22.804688 C 222.042969 23.8125 222.28125 24.628906 222.75 25.257812 C 223.222656 25.882812 223.921875 26.195312 224.855469 26.195312 C 225.714844 26.195312 226.371094 25.867188 226.820312 25.207031 C 227.058594 24.859375 227.234375 24.402344 227.351562 23.835938 L 228.488281 23.835938 C 228.386719 24.742188 228.050781 25.5 227.480469 26.113281 C 226.796875 26.851562 225.875 27.222656 224.714844 27.222656 C 223.714844 27.222656 222.875 26.917969 222.195312 26.3125 C 221.300781 25.511719 220.855469 24.277344 220.855469 22.605469 C 220.855469 21.335938 221.191406 20.292969 221.863281 19.480469 C 222.589844 18.597656 223.589844 18.15625 224.867188 18.15625 C 225.957031 18.15625 226.804688 18.445312 227.40625 19.019531 Z M 233.6875 25.527344 C 233.945312 24.996094 234.074219 24.40625 234.074219 23.757812 C 234.074219 23.171875 233.980469 22.695312 233.792969 22.328125 C 233.496094 21.75 232.984375 21.460938 232.257812 21.460938 C 231.613281 21.460938 231.144531 21.707031 230.851562 22.199219 C 230.558594 22.691406 230.414062 23.285156 230.414062 23.980469 C 230.414062 24.648438 230.558594 25.207031 230.851562 25.652344 C 231.144531 26.097656 231.609375 26.320312 232.246094 26.320312 C 232.945312 26.320312 233.425781 26.054688 233.6875 25.527344 Z M 234.339844 21.351562 C 234.898438 21.890625 235.175781 22.683594 235.175781 23.730469 C 235.175781 24.742188 234.929688 25.578125 234.4375 26.238281 C 233.945312 26.898438 233.183594 27.226562 232.148438 27.226562 C 231.285156 27.226562 230.597656 26.9375 230.089844 26.351562 C 229.582031 25.769531 229.328125 24.984375 229.328125 24 C 229.328125 22.945312 229.597656 22.105469 230.132812 21.480469 C 230.667969 20.855469 231.386719 20.542969 232.289062 20.542969 C 233.097656 20.542969 233.78125 20.8125 234.339844 21.351562 Z M 240.359375 25.527344 C 240.617188 24.996094 240.746094 24.40625 240.746094 23.757812 C 240.746094 23.171875 240.652344 22.695312 240.464844 22.328125 C 240.167969 21.75 239.65625 21.460938 238.929688 21.460938 C 238.285156 21.460938 237.816406 21.707031 237.523438 22.199219 C 237.230469 22.691406 237.085938 23.285156 237.085938 23.980469 C 237.085938 24.648438 237.230469 25.207031 237.523438 25.652344 C 237.816406 26.097656 238.28125 26.320312 238.917969 26.320312 C 239.617188 26.320312 240.097656 26.054688 240.359375 25.527344 Z M 241.011719 21.351562 C 241.570312 21.890625 241.847656 22.683594 241.847656 23.730469 C 241.847656 24.742188 241.601562 25.578125 241.109375 26.238281 C 240.617188 26.898438 239.855469 27.226562 238.820312 27.226562 C 237.957031 27.226562 237.269531 26.9375 236.761719 26.351562 C 236.253906 25.769531 236 24.984375 236 24 C 236 22.945312 236.269531 22.105469 236.804688 21.480469 C 237.339844 20.855469 238.058594 20.542969 238.960938 20.542969 C 239.769531 20.542969 240.453125 20.8125 241.011719 21.351562 Z M 243.078125 18.390625 L 244.089844 18.390625 L 244.089844 23.390625 L 246.796875 20.722656 L 248.144531 20.722656 L 245.742188 23.074219 L 248.28125 27 L 246.933594 27 L 244.976562 23.835938 L 244.089844 24.644531 L 244.089844 27 L 243.078125 27 Z M 249.101562 20.753906 L 250.171875 20.753906 L 250.171875 27 L 249.101562 27 Z M 249.101562 18.390625 L 250.171875 18.390625 L 250.171875 19.585938 L 249.101562 19.585938 Z M 255.664062 20.898438 C 256.082031 21.105469 256.402344 21.375 256.621094 21.707031 C 256.832031 22.023438 256.972656 22.394531 257.042969 22.816406 C 257.105469 23.105469 257.136719 23.566406 257.136719 24.199219 L 252.535156 24.199219 C 252.554688 24.835938 252.707031 25.347656 252.988281 25.730469 C 253.269531 26.117188 253.703125 26.308594 254.292969 26.308594 C 254.84375 26.308594 255.285156 26.125 255.613281 25.761719 C 255.800781 25.550781 255.933594 25.308594 256.011719 25.03125 L 257.046875 25.03125 C 257.019531 25.261719 256.929688 25.519531 256.777344 25.800781 C 256.621094 26.085938 256.449219 26.316406 256.257812 26.496094 C 255.9375 26.808594 255.539062 27.019531 255.066406 27.128906 C 254.8125 27.191406 254.527344 27.222656 254.207031 27.222656 C 253.425781 27.222656 252.761719 26.9375 252.21875 26.371094 C 251.675781 25.800781 251.40625 25.003906 251.40625 23.980469 C 251.40625 22.972656 251.679688 22.15625 252.226562 21.527344 C 252.773438 20.898438 253.488281 20.582031 254.371094 20.582031 C 254.816406 20.582031 255.246094 20.6875 255.664062 20.898438 Z M 256.050781 23.359375 C 256.007812 22.902344 255.910156 22.539062 255.753906 22.265625 C 255.464844 21.757812 254.980469 21.503906 254.304688 21.503906 C 253.820312 21.503906 253.414062 21.679688 253.085938 22.027344 C 252.757812 22.378906 252.585938 22.820312 252.566406 23.359375 Z M 256.050781 23.359375 "/>
<path style=" stroke:none;fill-rule:nonzero;fill:rgb(0%,0%,0%);fill-opacity:1;" d="M 220.148438 35.058594 L 220.148438 34.25 C 220.910156 34.175781 221.441406 34.050781 221.742188 33.878906 C 222.042969 33.703125 222.265625 33.292969 222.414062 32.644531 L 223.246094 32.644531 L 223.246094 41 L 222.121094 41 L 222.121094 35.058594 Z M 231.140625 33.304688 C 231.511719 33.789062 231.695312 34.289062 231.695312 34.804688 L 230.652344 34.804688 C 230.589844 34.472656 230.488281 34.214844 230.351562 34.027344 C 230.097656 33.675781 229.714844 33.5 229.199219 33.5 C 228.609375 33.5 228.140625 33.773438 227.792969 34.316406 C 227.445312 34.863281 227.25 35.640625 227.210938 36.65625 C 227.453125 36.300781 227.757812 36.035156 228.125 35.859375 C 228.460938 35.703125 228.835938 35.625 229.25 35.625 C 229.953125 35.625 230.566406 35.851562 231.089844 36.300781 C 231.613281 36.75 231.875 37.417969 231.875 38.308594 C 231.875 39.070312 231.628906 39.746094 231.132812 40.335938 C 230.636719 40.921875 229.929688 41.214844 229.011719 41.214844 C 228.226562 41.214844 227.546875 40.917969 226.976562 40.324219 C 226.40625 39.726562 226.121094 38.722656 226.121094 37.3125 C 226.121094 36.269531 226.25 35.386719 226.503906 34.660156 C 226.992188 33.269531 227.882812 32.574219 229.179688 32.574219 C 230.117188 32.574219 230.773438 32.816406 231.140625 33.304688 Z M 230.351562 39.71875 C 230.625 39.347656 230.761719 38.90625 230.761719 38.398438 C 230.761719 37.96875 230.640625 37.558594 230.394531 37.171875 C 230.148438 36.78125 229.699219 36.585938 229.050781 36.585938 C 228.597656 36.585938 228.203125 36.738281 227.859375 37.039062 C 227.519531 37.339844 227.347656 37.792969 227.347656 38.398438 C 227.347656 38.929688 227.503906 39.375 227.8125 39.738281 C 228.125 40.097656 228.554688 40.277344 229.105469 40.277344 C 229.660156 40.277344 230.074219 40.09375 230.351562 39.71875 Z M 239.820312 36.03125 C 240.3125 36.03125 240.695312 35.960938 240.96875 35.824219 C 241.398438 35.609375 241.613281 35.222656 241.613281 34.664062 C 241.613281 34.101562 241.382812 33.722656 240.925781 33.527344 C 240.667969 33.417969 240.285156 33.363281 239.777344 33.363281 L 237.699219 33.363281 L 237.699219 36.03125 Z M 240.210938 40.003906 C 240.925781 40.003906 241.4375 39.796875 241.742188 39.382812 C 241.933594 39.121094 242.027344 38.804688 242.027344 38.433594 C 242.027344 37.808594 241.75 37.382812 241.191406 37.15625 C 240.894531 37.035156 240.5 36.972656 240.011719 36.972656 L 237.699219 36.972656 L 237.699219 40.003906 Z M 236.554688 32.390625 L 240.253906 32.390625 C 241.261719 32.390625 241.976562 32.691406 242.402344 33.292969 C 242.652344 33.648438 242.777344 34.058594 242.777344 34.523438 C 242.777344 35.066406 242.625 35.511719 242.316406 35.859375 C 242.15625 36.042969 241.925781 36.210938 241.625 36.363281 C 242.066406 36.53125 242.394531 36.722656 242.613281 36.933594 C 243 37.308594 243.195312 37.824219 243.195312 38.484375 C 243.195312 39.039062 243.019531 39.542969 242.671875 39.992188 C 242.152344 40.664062 241.328125 41 240.195312 41 L 236.554688 41 Z M 248.363281 34.722656 L 249.53125 34.722656 C 249.382812 35.125 249.050781 36.042969 248.539062 37.476562 C 248.15625 38.554688 247.835938 39.433594 247.578125 40.113281 C 246.96875 41.714844 246.539062 42.691406 246.289062 43.042969 C 246.039062 43.394531 245.609375 43.570312 245 43.570312 C 244.851562 43.570312 244.738281 43.566406 244.660156 43.554688 C 244.578125 43.542969 244.480469 43.519531 244.363281 43.488281 L 244.363281 42.527344 C 244.546875 42.578125 244.679688 42.609375 244.761719 42.621094 C 244.84375 42.632812 244.914062 42.640625 244.976562 42.640625 C 245.171875 42.640625 245.316406 42.609375 245.410156 42.542969 C 245.5 42.480469 245.578125 42.398438 245.640625 42.304688 C 245.660156 42.273438 245.730469 42.113281 245.851562 41.824219 C 245.972656 41.535156 246.058594 41.320312 246.113281 41.179688 L 243.792969 34.722656 L 244.988281 34.722656 L 246.671875 39.832031 Z M 250.65625 32.972656 L 251.722656 32.972656 L 251.722656 34.722656 L 252.722656 34.722656 L 252.722656 35.585938 L 251.722656 35.585938 L 251.722656 39.679688 C 251.722656 39.898438 251.796875 40.046875 251.945312 40.121094 C 252.027344 40.164062 252.164062 40.183594 252.355469 40.183594 C 252.40625 40.183594 252.460938 40.183594 252.519531 40.183594 C 252.578125 40.179688 252.644531 40.175781 252.722656 40.167969 L 252.722656 41 C 252.601562 41.035156 252.476562 41.058594 252.347656 41.074219 C 252.214844 41.089844 252.074219 41.097656 251.921875 41.097656 C 251.429688 41.097656 251.09375 40.972656 250.917969 40.722656 C 250.742188 40.46875 250.65625 40.140625 250.65625 39.738281 L 250.65625 35.585938 L 249.804688 35.585938 L 249.804688 34.722656 L 250.65625 34.722656 Z M 257.679688 34.898438 C 258.097656 35.105469 258.417969 35.375 258.636719 35.707031 C 258.847656 36.023438 258.988281 36.394531 259.058594 36.816406 C 259.121094 37.105469 259.152344 37.566406 259.152344 38.199219 L 254.550781 38.199219 C 254.570312 38.835938 254.722656 39.347656 255.003906 39.730469 C 255.285156 40.117188 255.71875 40.308594 256.308594 40.308594 C 256.859375 40.308594 257.300781 40.125 257.628906 39.761719 C 257.816406 39.550781 257.949219 39.308594 258.027344 39.03125 L 259.0625 39.03125 C 259.035156 39.261719 258.945312 39.519531 258.792969 39.800781 C 258.636719 40.085938 258.464844 40.316406 258.273438 40.496094 C 257.953125 40.808594 257.554688 41.019531 257.082031 41.128906 C 256.828125 41.191406 256.542969 41.222656 256.222656 41.222656 C 255.441406 41.222656 254.777344 40.9375 254.234375 40.371094 C 253.691406 39.800781 253.421875 39.003906 253.421875 37.980469 C 253.421875 36.972656 253.695312 36.15625 254.242188 35.527344 C 254.789062 34.898438 255.503906 34.582031 256.386719 34.582031 C 256.832031 34.582031 257.261719 34.6875 257.679688 34.898438 Z M 258.066406 37.359375 C 258.023438 36.902344 257.925781 36.539062 257.769531 36.265625 C 257.480469 35.757812 256.996094 35.503906 256.320312 35.503906 C 255.835938 35.503906 255.429688 35.679688 255.101562 36.027344 C 254.773438 36.378906 254.601562 36.820312 254.582031 37.359375 Z M 258.066406 37.359375 "/>
<path style="fill-rule:nonzero;fill:rgb(100%,89.802551%,59.999084%);fill-opacity:1;stroke-width:1;stroke-linecap:butt;stroke-linejoin:miter;stroke:rgb(0%,0%,0%);stroke-opacity:1;stroke-miterlimit:10;" d="M 480 0 L 600 0 L 600 60 L 480 60 Z M 480 0 " transform="matrix(1,0,0,1,0.5,0.5)"/>
<path style=" stroke:none;fill-rule:nonzero;fill:rgb(0%,0%,0%);fill-opacity:1;" d="M 501.078125 19.019531 C 501.679688 19.59375 502.011719 20.246094 502.078125 20.976562 L 500.941406 20.976562 C 500.8125 20.421875 500.558594 19.980469 500.171875 19.65625 C 499.789062 19.332031 499.246094 19.171875 498.550781 19.171875 C 497.703125 19.171875 497.019531 19.46875 496.5 20.066406 C 495.976562 20.660156 495.714844 21.574219 495.714844 22.804688 C 495.714844 23.8125 495.953125 24.628906 496.421875 25.257812 C 496.894531 25.882812 497.59375 26.195312 498.527344 26.195312 C 499.386719 26.195312 500.042969 25.867188 500.492188 25.207031 C 500.730469 24.859375 500.90625 24.402344 501.023438 23.835938 L 502.160156 23.835938 C 502.058594 24.742188 501.722656 25.5 501.152344 26.113281 C 500.46875 26.851562 499.546875 27.222656 498.386719 27.222656 C 497.386719 27.222656 496.546875 26.917969 495.867188 26.3125 C 494.972656 25.511719 494.527344 24.277344 494.527344 22.605469 C 494.527344 21.335938 494.863281 20.292969 495.535156 19.480469 C 496.261719 18.597656 497.261719 18.15625 498.539062 18.15625 C 499.628906 18.15625 500.476562 18.445312 501.078125 19.019531 Z M 503.429688 18.363281 L 504.484375 18.363281 L 504.484375 21.574219 C 504.734375 21.257812 504.957031 21.035156 505.15625 20.90625 C 505.496094 20.683594 505.921875 20.570312 506.429688 20.570312 C 507.339844 20.570312 507.957031 20.890625 508.28125 21.527344 C 508.457031 21.875 508.542969 22.355469 508.542969 22.972656 L 508.542969 27 L 507.460938 27 L 507.460938 23.042969 C 507.460938 22.582031 507.402344 22.246094 507.285156 22.03125 C 507.09375 21.6875 506.734375 21.515625 506.207031 21.515625 C 505.769531 21.515625 505.371094 21.664062 505.015625 21.964844 C 504.660156 22.265625 504.484375 22.835938 504.484375 23.671875 L 504.484375 27 L 503.429688 27 Z M 511.242188 26.050781 C 511.464844 26.226562 511.730469 26.3125 512.035156 26.3125 C 512.40625 26.3125 512.765625 26.226562 513.113281 26.054688 C 513.699219 25.769531 513.992188 25.304688 513.992188 24.65625 L 513.992188 23.804688 C 513.863281 23.886719 513.695312 23.957031 513.492188 24.011719 C 513.289062 24.066406 513.089844 24.105469 512.894531 24.128906 L 512.257812 24.210938 C 511.875 24.261719 511.585938 24.339844 511.394531 24.449219 C 511.070312 24.632812 510.910156 24.925781 510.910156 25.328125 C 510.910156 25.632812 511.019531 25.875 511.242188 26.050781 Z M 513.464844 23.195312 C 513.707031 23.164062 513.867188 23.0625 513.949219 22.890625 C 513.996094 22.796875 514.019531 22.664062 514.019531 22.488281 C 514.019531 22.128906 513.894531 21.867188 513.636719 21.707031 C 513.382812 21.542969 513.015625 21.460938 512.539062 21.460938 C 511.988281 21.460938 511.597656 21.609375 511.367188 21.90625 C 511.238281 22.070312 511.152344 22.316406 511.113281 22.640625 L 510.128906 22.640625 C 510.148438 21.867188 510.402344 21.328125 510.882812 21.027344 C 511.367188 20.722656 511.925781 20.570312 512.5625 20.570312 C 513.300781 20.570312 513.898438 20.710938 514.359375 20.992188 C 514.816406 21.273438 515.046875 21.710938 515.046875 22.304688 L 515.046875 25.921875 C 515.046875 26.03125 515.070312 26.117188 515.113281 26.183594 C 515.160156 26.25 515.253906 26.285156 515.398438 26.285156 C 515.445312 26.285156 515.496094 26.28125 515.554688 26.277344 C 515.613281 26.269531 515.675781 26.261719 515.742188 26.25 L 515.742188 27.027344 C 515.578125 27.074219 515.453125 27.105469 515.367188 27.117188 C 515.28125 27.128906 515.164062 27.132812 515.015625 27.132812 C 514.652344 27.132812 514.390625 27.003906 514.226562 26.746094 C 514.140625 26.609375 514.078125 26.417969 514.042969 26.167969 C 513.828125 26.449219 513.519531 26.691406 513.117188 26.898438 C 512.714844 27.105469 512.273438 27.210938 511.789062 27.210938 C 511.207031 27.210938 510.730469 27.035156 510.363281 26.679688 C 509.992188 26.328125 509.808594 25.882812 509.808594 25.351562 C 509.808594 24.769531 509.988281 24.320312 510.351562 24 C 510.714844 23.679688 511.191406 23.480469 511.78125 23.40625 Z M 516.773438 20.722656 L 517.773438 20.722656 L 517.773438 21.613281 C 518.070312 21.246094 518.386719 20.984375 518.71875 20.824219 C 519.050781 20.664062 519.417969 20.582031 519.824219 20.582031 C 520.714844 20.582031 521.316406 20.894531 521.628906 21.515625 C 521.800781 21.855469 521.886719 22.339844 521.886719 22.972656 L 521.886719 27 L 520.816406 27 L 520.816406 23.042969 C 520.816406 22.660156 520.757812 22.351562 520.644531 22.117188 C 520.457031 21.726562 520.117188 21.53125 519.625 21.53125 C 519.375 21.53125 519.171875 21.558594 519.011719 21.609375 C 518.722656 21.695312 518.46875 21.867188 518.25 22.125 C 518.074219 22.332031 517.960938 22.546875 517.90625 22.765625 C 517.855469 22.988281 517.828125 23.300781 517.828125 23.710938 L 517.828125 27 L 516.773438 27 Z M 523.445312 20.722656 L 524.445312 20.722656 L 524.445312 21.613281 C 524.742188 21.246094 525.058594 20.984375 525.390625 20.824219 C 525.722656 20.664062 526.089844 20.582031 526.496094 20.582031 C 527.386719 20.582031 527.988281 20.894531 528.300781 21.515625 C 528.472656 21.855469 528.558594 22.339844 528.558594 22.972656 L 528.558594 27 L 527.488281 27 L 527.488281 23.042969 C 527.488281 22.660156 527.429688 22.351562 527.316406 22.117188 C 527.128906 21.726562 526.789062 21.53125 526.296875 21.53125 C 526.046875 21.53125 525.84375 21.558594 525.683594 21.609375 C 525.394531 21.695312 525.140625 21.867188 524.921875 22.125 C 524.746094 22.332031 524.632812 22.546875 524.578125 22.765625 C 524.527344 22.988281 524.5 23.300781 524.5 23.710938 L 524.5 27 L 523.445312 27 Z M 534.023438 20.898438 C 534.441406 21.105469 534.761719 21.375 534.980469 21.707031 C 535.191406 22.023438 535.332031 22.394531 535.402344 22.816406 C 535.464844 23.105469 535.496094 23.566406 535.496094 24.199219 L 530.894531 24.199219 C 530.914062 24.835938 531.066406 25.347656 531.347656 25.730469 C 531.628906 26.117188 532.0625 26.308594 532.652344 26.308594 C 533.203125 26.308594 533.644531 26.125 533.972656 25.761719 C 534.160156 25.550781 534.292969 25.308594 534.371094 25.03125 L 535.40625 25.03125 C 535.378906 25.261719 535.289062 25.519531 535.136719 25.800781 C 534.980469 26.085938 534.808594 26.316406 534.617188 26.496094 C 534.296875 26.808594 533.898438 27.019531 533.425781 27.128906 C 533.171875 27.191406 532.886719 27.222656 532.566406 27.222656 C 531.785156 27.222656 531.121094 26.9375 530.578125 26.371094 C 530.035156 25.800781 529.765625 25.003906 529.765625 23.980469 C 529.765625 22.972656 530.039062 22.15625 530.585938 21.527344 C 531.132812 20.898438 531.847656 20.582031 532.730469 20.582031 C 533.175781 20.582031 533.605469 20.6875 534.023438 20.898438 Z M 534.410156 23.359375 C 534.367188 22.902344 534.269531 22.539062 534.113281 22.265625 C 533.824219 21.757812 533.339844 21.503906 532.664062 21.503906 C 532.179688 21.503906 531.773438 21.679688 531.445312 22.027344 C 531.117188 22.378906 530.945312 22.820312 530.925781 23.359375 Z M 536.816406 18.390625 L 537.871094 18.390625 L 537.871094 27 L 536.816406 27 Z M 542.914062 18.390625 L 544.289062 18.390625 L 548.636719 25.363281 L 548.636719 18.390625 L 549.746094 18.390625 L 549.746094 27 L 548.4375 27 L 544.027344 20.03125 L 544.027344 27 L 542.914062 27 Z M 552.484375 20.722656 L 552.484375 24.890625 C 552.484375 25.210938 552.535156 25.472656 552.636719 25.675781 C 552.824219 26.050781 553.171875 26.238281 553.683594 26.238281 C 554.417969 26.238281 554.917969 25.910156 555.183594 25.253906 C 555.328125 24.902344 555.402344 24.417969 555.402344 23.804688 L 555.402344 20.722656 L 556.457031 20.722656 L 556.457031 27 L 555.460938 27 L 555.472656 26.074219 C 555.335938 26.3125 555.164062 26.511719 554.960938 26.675781 C 554.558594 27.003906 554.070312 27.167969 553.496094 27.167969 C 552.601562 27.167969 551.992188 26.871094 551.667969 26.273438 C 551.492188 25.953125 551.40625 25.523438 551.40625 24.988281 L 551.40625 20.722656 Z M 558.101562 20.722656 L 559.144531 20.722656 L 559.144531 21.613281 C 559.394531 21.304688 559.621094 21.082031 559.824219 20.941406 C 560.171875 20.703125 560.566406 20.582031 561.007812 20.582031 C 561.507812 20.582031 561.910156 20.707031 562.214844 20.953125 C 562.386719 21.09375 562.542969 21.300781 562.683594 21.574219 C 562.917969 21.238281 563.191406 20.988281 563.507812 20.828125 C 563.824219 20.664062 564.179688 20.582031 564.574219 20.582031 C 565.417969 20.582031 565.992188 20.886719 566.296875 21.496094 C 566.460938 21.824219 566.542969 22.265625 566.542969 22.820312 L 566.542969 27 L 565.449219 27 L 565.449219 22.640625 C 565.449219 22.222656 565.34375 21.933594 565.136719 21.777344 C 564.925781 21.621094 564.671875 21.542969 564.371094 21.542969 C 563.957031 21.542969 563.601562 21.683594 563.300781 21.960938 C 563.003906 22.238281 562.851562 22.699219 562.851562 23.347656 L 562.851562 27 L 561.78125 27 L 561.78125 22.902344 C 561.78125 22.476562 561.730469 22.167969 561.628906 21.972656 C 561.46875 21.679688 561.167969 21.53125 560.730469 21.53125 C 560.332031 21.53125 559.972656 21.6875 559.644531 21.996094 C 559.320312 22.304688 559.15625 22.863281 559.15625 23.671875 L 559.15625 27 L 558.101562 27 Z M 568.003906 18.363281 L 569.027344 18.363281 L 569.027344 21.484375 C 569.257812 21.183594 569.535156 20.957031 569.855469 20.796875 C 570.175781 20.640625 570.523438 20.558594 570.898438 20.558594 C 571.679688 20.558594 572.3125 20.828125 572.800781 21.367188 C 573.285156 21.902344 573.527344 22.695312 573.527344 23.742188 C 573.527344 24.734375 573.289062 25.558594 572.808594 26.214844 C 572.328125 26.871094 571.660156 27.199219 570.808594 27.199219 C 570.332031 27.199219 569.929688 27.082031 569.601562 26.851562 C 569.40625 26.714844 569.199219 26.496094 568.976562 26.195312 L 568.976562 27 L 568.003906 27 Z M 572.027344 25.585938 C 572.308594 25.132812 572.449219 24.535156 572.449219 23.792969 C 572.449219 23.132812 572.308594 22.585938 572.027344 22.152344 C 571.742188 21.71875 571.324219 21.503906 570.773438 21.503906 C 570.292969 21.503906 569.875 21.679688 569.511719 22.035156 C 569.152344 22.390625 568.96875 22.976562 568.96875 23.792969 C 568.96875 24.382812 569.042969 24.863281 569.191406 25.230469 C 569.46875 25.921875 569.988281 26.265625 570.746094 26.265625 C 571.316406 26.265625 571.742188 26.039062 572.027344 25.585938 Z M 578.664062 20.898438 C 579.082031 21.105469 579.402344 21.375 579.621094 21.707031 C 579.832031 22.023438 579.972656 22.394531 580.042969 22.816406 C 580.105469 23.105469 580.136719 23.566406 580.136719 24.199219 L 575.535156 24.199219 C 575.554688 24.835938 575.707031 25.347656 575.988281 25.730469 C 576.269531 26.117188 576.703125 26.308594 577.292969 26.308594 C 577.84375 26.308594 578.285156 26.125 578.613281 25.761719 C 578.800781 25.550781 578.933594 25.308594 579.011719 25.03125 L 580.046875 25.03125 C 580.019531 25.261719 579.929688 25.519531 579.777344 25.800781 C 579.621094 26.085938 579.449219 26.316406 579.257812 26.496094 C 578.9375 26.808594 578.539062 27.019531 578.066406 27.128906 C 577.8125 27.191406 577.527344 27.222656 577.207031 27.222656 C 576.425781 27.222656 575.761719 26.9375 575.21875 26.371094 C 574.675781 25.800781 574.40625 25.003906 574.40625 23.980469 C 574.40625 22.972656 574.679688 22.15625 575.226562 21.527344 C 575.773438 20.898438 576.488281 20.582031 577.371094 20.582031 C 577.816406 20.582031 578.246094 20.6875 578.664062 20.898438 Z M 579.050781 23.359375 C 579.007812 22.902344 578.910156 22.539062 578.753906 22.265625 C 578.464844 21.757812 577.980469 21.503906 577.304688 21.503906 C 576.820312 21.503906 576.414062 21.679688 576.085938 22.027344 C 575.757812 22.378906 575.585938 22.820312 575.566406 23.359375 Z M 581.457031 20.722656 L 582.460938 20.722656 L 582.460938 21.808594 C 582.542969 21.597656 582.742188 21.339844 583.0625 21.039062 C 583.382812 20.734375 583.753906 20.582031 584.171875 20.582031 C 584.191406 20.582031 584.222656 20.585938 584.269531 20.589844 C 584.316406 20.59375 584.398438 20.601562 584.511719 20.613281 L 584.511719 21.726562 C 584.449219 21.714844 584.390625 21.707031 584.339844 21.703125 C 584.285156 21.699219 584.226562 21.695312 584.164062 21.695312 C 583.632812 21.695312 583.226562 21.867188 582.941406 22.210938 C 582.65625 22.550781 582.511719 22.945312 582.511719 23.390625 L 582.511719 27 L 581.457031 27 Z M 581.457031 20.722656 "/>
<path style=" stroke:none;fill-rule:nonzero;fill:rgb(0%,0%,0%);fill-opacity:1;" d="M 525.964844 38.027344 L 525.964844 34.226562 L 523.277344 38.027344 Z M 525.984375 41 L 525.984375 38.949219 L 522.304688 38.949219 L 522.304688 37.917969 L 526.148438 32.585938 L 527.039062 32.585938 L 527.039062 38.027344 L 528.273438 38.027344 L 528.273438 38.949219 L 527.039062 38.949219 L 527.039062 41 Z M 536.148438 36.03125 C 536.640625 36.03125 537.023438 35.960938 537.296875 35.824219 C 537.726562 35.609375 537.941406 35.222656 537.941406 34.664062 C 537.941406 34.101562 537.710938 33.722656 537.253906 33.527344 C 536.996094 33.417969 536.613281 33.363281 536.105469 33.363281 L 534.027344 33.363281 L 534.027344 36.03125 Z M 536.539062 40.003906 C 537.253906 40.003906 537.765625 39.796875 538.070312 39.382812 C 538.261719 39.121094 538.355469 38.804688 538.355469 38.433594 C 538.355469 37.808594 538.078125 37.382812 537.519531 37.15625 C 537.222656 37.035156 536.828125 36.972656 536.339844 36.972656 L 534.027344 36.972656 L 534.027344 40.003906 Z M 532.882812 32.390625 L 536.582031 32.390625 C 537.589844 32.390625 538.304688 32.691406 538.730469 33.292969 C 538.980469 33.648438 539.105469 34.058594 539.105469 34.523438 C 539.105469 35.066406 538.953125 35.511719 538.644531 35.859375 C 538.484375 36.042969 538.253906 36.210938 537.953125 36.363281 C 538.394531 36.53125 538.722656 36.722656 538.941406 36.933594 C 539.328125 37.308594 539.523438 37.824219 539.523438 38.484375 C 539.523438 39.039062 539.347656 39.542969 539 39.992188 C 538.480469 40.664062 537.65625 41 536.523438 41 L 532.882812 41 Z M 544.691406 34.722656 L 545.859375 34.722656 C 545.710938 35.125 545.378906 36.042969 544.867188 37.476562 C 544.484375 38.554688 544.164062 39.433594 543.90625 40.113281 C 543.296875 41.714844 542.867188 42.691406 542.617188 43.042969 C 542.367188 43.394531 541.9375 43.570312 541.328125 43.570312 C 541.179688 43.570312 541.066406 43.566406 540.988281 43.554688 C 540.90625 43.542969 540.808594 43.519531 540.691406 43.488281 L 540.691406 42.527344 C 540.875 42.578125 541.007812 42.609375 541.089844 42.621094 C 541.171875 42.632812 541.242188 42.640625 541.304688 42.640625 C 541.5 42.640625 541.644531 42.609375 541.738281 42.542969 C 541.828125 42.480469 541.90625 42.398438 541.96875 42.304688 C 541.988281 42.273438 542.058594 42.113281 542.179688 41.824219 C 542.300781 41.535156 542.386719 41.320312 542.441406 41.179688 L 540.121094 34.722656 L 541.316406 34.722656 L 543 39.832031 Z M 546.984375 32.972656 L 548.050781 32.972656 L 548.050781 34.722656 L 549.050781 34.722656 L 549.050781 35.585938 L 548.050781 35.585938 L 548.050781 39.679688 C 548.050781 39.898438 548.125 40.046875 548.273438 40.121094 C 548.355469 40.164062 548.492188 40.183594 548.683594 40.183594 C 548.734375 40.183594 548.789062 40.183594 548.847656 40.183594 C 548.90625 40.179688 548.972656 40.175781 549.050781 40.167969 L 549.050781 41 C 548.929688 41.035156 548.804688 41.058594 548.675781 41.074219 C 548.542969 41.089844 548.402344 41.097656 548.25 41.097656 C 547.757812 41.097656 547.421875 40.972656 547.246094 40.722656 C 547.070312 40.46875 546.984375 40.140625 546.984375 39.738281 L 546.984375 35.585938 L 546.132812 35.585938 L 546.132812 34.722656 L 546.984375 34.722656 Z M 554.007812 34.898438 C 554.425781 35.105469 554.746094 35.375 554.964844 35.707031 C 555.175781 36.023438 555.316406 36.394531 555.386719 36.816406 C 555.449219 37.105469 555.480469 37.566406 555.480469 38.199219 L 550.878906 38.199219 C 550.898438 38.835938 551.050781 39.347656 551.332031 39.730469 C 551.613281 40.117188 552.046875 40.308594 552.636719 40.308594 C 553.1875 40.308594 553.628906 40.125 553.957031 39.761719 C 554.144531 39.550781 554.277344 39.308594 554.355469 39.03125 L 555.390625 39.03125 C 555.363281 39.261719 555.273438 39.519531 555.121094 39.800781 C 554.964844 40.085938 554.792969 40.316406 554.601562 40.496094 C 554.28125 40.808594 553.882812 41.019531 553.410156 41.128906 C 553.15625 41.191406 552.871094 41.222656 552.550781 41.222656 C 551.769531 41.222656 551.105469 40.9375 550.5625 40.371094 C 550.019531 39.800781 549.75 39.003906 549.75 37.980469 C 549.75 36.972656 550.023438 36.15625 550.570312 35.527344 C 551.117188 34.898438 551.832031 34.582031 552.714844 34.582031 C 553.160156 34.582031 553.589844 34.6875 554.007812 34.898438 Z M 554.394531 37.359375 C 554.351562 36.902344 554.253906 36.539062 554.097656 36.265625 C 553.808594 35.757812 553.324219 35.503906 552.648438 35.503906 C 552.164062 35.503906 551.757812 35.679688 551.429688 36.027344 C 551.101562 36.378906 550.929688 36.820312 550.910156 37.359375 Z M 554.394531 37.359375 "/>
<path style="fill-rule:nonzero;fill:rgb(100%,89.802551%,59.999084%);fill-opacity:1;stroke-width:1;stroke-linecap:butt;stroke-linejoin:miter;stroke:rgb(0%,0%,0%);stroke-opacity:1;stroke-miterlimit:10;" d="M 600 0 L 720 0 L 720 60 L 600 60 Z M 600 0 " transform="matrix(1,0,0,1,0.5,0.5)"/>
<path style=" stroke:none;fill-rule:nonzero;fill:rgb(0%,0%,0%);fill-opacity:1;" d="M 611.675781 24.222656 C 611.703125 24.710938 611.816406 25.105469 612.019531 25.410156 C 612.40625 25.980469 613.089844 26.265625 614.066406 26.265625 C 614.503906 26.265625 614.902344 26.203125 615.261719 26.078125 C 615.957031 25.835938 616.304688 25.402344 616.304688 24.777344 C 616.304688 24.308594 616.15625 23.976562 615.863281 23.777344 C 615.566406 23.582031 615.101562 23.410156 614.46875 23.265625 L 613.304688 23.003906 C 612.542969 22.832031 612.003906 22.640625 611.6875 22.433594 C 611.140625 22.074219 610.867188 21.539062 610.867188 20.824219 C 610.867188 20.050781 611.132812 19.414062 611.667969 18.917969 C 612.203125 18.421875 612.960938 18.175781 613.941406 18.175781 C 614.84375 18.175781 615.613281 18.394531 616.242188 18.828125 C 616.875 19.265625 617.1875 19.960938 617.1875 20.917969 L 616.09375 20.917969 C 616.035156 20.457031 615.910156 20.101562 615.71875 19.855469 C 615.363281 19.40625 614.757812 19.183594 613.90625 19.183594 C 613.21875 19.183594 612.726562 19.328125 612.425781 19.617188 C 612.125 19.90625 611.972656 20.242188 611.972656 20.625 C 611.972656 21.046875 612.148438 21.355469 612.5 21.550781 C 612.730469 21.675781 613.253906 21.832031 614.066406 22.019531 L 615.273438 22.292969 C 615.855469 22.425781 616.304688 22.609375 616.621094 22.839844 C 617.167969 23.242188 617.441406 23.824219 617.441406 24.589844 C 617.441406 25.542969 617.09375 26.226562 616.402344 26.636719 C 615.707031 27.046875 614.902344 27.25 613.984375 27.25 C 612.914062 27.25 612.074219 26.976562 611.46875 26.429688 C 610.863281 25.886719 610.566406 25.152344 610.578125 24.222656 Z M 622.679688 20.898438 C 623.097656 21.105469 623.417969 21.375 623.636719 21.707031 C 623.847656 22.023438 623.988281 22.394531 624.058594 22.816406 C 624.121094 23.105469 624.152344 23.566406 624.152344 24.199219 L 619.550781 24.199219 C 619.570312 24.835938 619.722656 25.347656 620.003906 25.730469 C 620.285156 26.117188 620.71875 26.308594 621.308594 26.308594 C 621.859375 26.308594 622.300781 26.125 622.628906 25.761719 C 622.816406 25.550781 622.949219 25.308594 623.027344 25.03125 L 624.0625 25.03125 C 624.035156 25.261719 623.945312 25.519531 623.792969 25.800781 C 623.636719 26.085938 623.464844 26.316406 623.273438 26.496094 C 622.953125 26.808594 622.554688 27.019531 622.082031 27.128906 C 621.828125 27.191406 621.542969 27.222656 621.222656 27.222656 C 620.441406 27.222656 619.777344 26.9375 619.234375 26.371094 C 618.691406 25.800781 618.421875 25.003906 618.421875 23.980469 C 618.421875 22.972656 618.695312 22.15625 619.242188 21.527344 C 619.789062 20.898438 620.503906 20.582031 621.386719 20.582031 C 621.832031 20.582031 622.261719 20.6875 622.679688 20.898438 Z M 623.066406 23.359375 C 623.023438 22.902344 622.925781 22.539062 622.769531 22.265625 C 622.480469 21.757812 621.996094 21.503906 621.320312 21.503906 C 620.835938 21.503906 620.429688 21.679688 620.101562 22.027344 C 619.773438 22.378906 619.601562 22.820312 619.582031 23.359375 Z M 626.351562 25.3125 C 626.621094 25.964844 627.105469 26.289062 627.800781 26.289062 C 628.535156 26.289062 629.039062 25.945312 629.316406 25.257812 C 629.46875 24.878906 629.546875 24.394531 629.546875 23.804688 C 629.546875 23.261719 629.460938 22.808594 629.292969 22.445312 C 629.007812 21.824219 628.507812 21.515625 627.789062 21.515625 C 627.332031 21.515625 626.941406 21.714844 626.613281 22.109375 C 626.289062 22.507812 626.125 23.117188 626.125 23.945312 C 626.125 24.488281 626.199219 24.945312 626.351562 25.3125 Z M 628.996094 20.976562 C 629.191406 21.117188 629.378906 21.324219 629.558594 21.597656 L 629.558594 20.722656 L 630.558594 20.722656 L 630.558594 29.5 L 629.5 29.5 L 629.5 26.277344 C 629.324219 26.558594 629.082031 26.785156 628.769531 26.949219 C 628.460938 27.117188 628.070312 27.199219 627.605469 27.199219 C 626.9375 27.199219 626.339844 26.9375 625.8125 26.414062 C 625.285156 25.890625 625.023438 25.09375 625.023438 24.023438 C 625.023438 23.019531 625.269531 22.195312 625.765625 21.550781 C 626.257812 20.90625 626.898438 20.582031 627.683594 20.582031 C 628.203125 20.582031 628.640625 20.714844 628.996094 20.976562 Z M 633.171875 20.722656 L 633.171875 24.890625 C 633.171875 25.210938 633.222656 25.472656 633.324219 25.675781 C 633.511719 26.050781 633.859375 26.238281 634.371094 26.238281 C 635.105469 26.238281 635.605469 25.910156 635.871094 25.253906 C 636.015625 24.902344 636.089844 24.417969 636.089844 23.804688 L 636.089844 20.722656 L 637.144531 20.722656 L 637.144531 27 L 636.148438 27 L 636.160156 26.074219 C 636.023438 26.3125 635.851562 26.511719 635.648438 26.675781 C 635.246094 27.003906 634.757812 27.167969 634.183594 27.167969 C 633.289062 27.167969 632.679688 26.871094 632.355469 26.273438 C 632.179688 25.953125 632.09375 25.523438 632.09375 24.988281 L 632.09375 20.722656 Z M 642.695312 20.898438 C 643.113281 21.105469 643.433594 21.375 643.652344 21.707031 C 643.863281 22.023438 644.003906 22.394531 644.074219 22.816406 C 644.136719 23.105469 644.167969 23.566406 644.167969 24.199219 L 639.566406 24.199219 C 639.585938 24.835938 639.738281 25.347656 640.019531 25.730469 C 640.300781 26.117188 640.734375 26.308594 641.324219 26.308594 C 641.875 26.308594 642.316406 26.125 642.644531 25.761719 C 642.832031 25.550781 642.964844 25.308594 643.042969 25.03125 L 644.078125 25.03125 C 644.050781 25.261719 643.960938 25.519531 643.808594 25.800781 C 643.652344 26.085938 643.480469 26.316406 643.289062 26.496094 C 642.96875 26.808594 642.570312 27.019531 642.097656 27.128906 C 641.84375 27.191406 641.558594 27.222656 641.238281 27.222656 C 640.457031 27.222656 639.792969 26.9375 639.25 26.371094 C 638.707031 25.800781 638.4375 25.003906 638.4375 23.980469 C 638.4375 22.972656 638.710938 22.15625 639.257812 21.527344 C 639.804688 20.898438 640.519531 20.582031 641.402344 20.582031 C 641.847656 20.582031 642.277344 20.6875 642.695312 20.898438 Z M 643.082031 23.359375 C 643.039062 22.902344 642.941406 22.539062 642.785156 22.265625 C 642.496094 21.757812 642.011719 21.503906 641.335938 21.503906 C 640.851562 21.503906 640.445312 21.679688 640.117188 22.027344 C 639.789062 22.378906 639.617188 22.820312 639.597656 23.359375 Z M 645.460938 20.722656 L 646.460938 20.722656 L 646.460938 21.613281 C 646.757812 21.246094 647.074219 20.984375 647.40625 20.824219 C 647.738281 20.664062 648.105469 20.582031 648.511719 20.582031 C 649.402344 20.582031 650.003906 20.894531 650.316406 21.515625 C 650.488281 21.855469 650.574219 22.339844 650.574219 22.972656 L 650.574219 27 L 649.503906 27 L 649.503906 23.042969 C 649.503906 22.660156 649.445312 22.351562 649.332031 22.117188 C 649.144531 21.726562 648.804688 21.53125 648.3125 21.53125 C 648.0625 21.53125 647.859375 21.558594 647.699219 21.609375 C 647.410156 21.695312 647.15625 21.867188 646.9375 22.125 C 646.761719 22.332031 646.648438 22.546875 646.59375 22.765625 C 646.542969 22.988281 646.515625 23.300781 646.515625 23.710938 L 646.515625 27 L 645.460938 27 Z M 656.277344 21.058594 C 656.722656 21.402344 656.988281 21.992188 657.078125 22.832031 L 656.050781 22.832031 C 655.988281 22.445312 655.847656 22.125 655.625 21.871094 C 655.402344 21.613281 655.042969 21.484375 654.550781 21.484375 C 653.878906 21.484375 653.398438 21.8125 653.109375 22.46875 C 652.921875 22.894531 652.828125 23.421875 652.828125 24.046875 C 652.828125 24.675781 652.960938 25.203125 653.226562 25.632812 C 653.492188 26.0625 653.910156 26.277344 654.480469 26.277344 C 654.917969 26.277344 655.265625 26.144531 655.523438 25.878906 C 655.777344 25.609375 655.953125 25.242188 656.050781 24.777344 L 657.078125 24.777344 C 656.960938 25.609375 656.667969 26.21875 656.199219 26.605469 C 655.730469 26.988281 655.128906 27.179688 654.398438 27.179688 C 653.578125 27.179688 652.925781 26.882812 652.4375 26.28125 C 651.949219 25.683594 651.703125 24.933594 651.703125 24.035156 C 651.703125 22.933594 651.972656 22.074219 652.507812 21.460938 C 653.042969 20.847656 653.722656 20.542969 654.550781 20.542969 C 655.257812 20.542969 655.835938 20.714844 656.277344 21.058594 Z M 662.039062 20.898438 C 662.457031 21.105469 662.777344 21.375 662.996094 21.707031 C 663.207031 22.023438 663.347656 22.394531 663.417969 22.816406 C 663.480469 23.105469 663.511719 23.566406 663.511719 24.199219 L 658.910156 24.199219 C 658.929688 24.835938 659.082031 25.347656 659.363281 25.730469 C 659.644531 26.117188 660.078125 26.308594 660.667969 26.308594 C 661.21875 26.308594 661.660156 26.125 661.988281 25.761719 C 662.175781 25.550781 662.308594 25.308594 662.386719 25.03125 L 663.421875 25.03125 C 663.394531 25.261719 663.304688 25.519531 663.152344 25.800781 C 662.996094 26.085938 662.824219 26.316406 662.632812 26.496094 C 662.3125 26.808594 661.914062 27.019531 661.441406 27.128906 C 661.1875 27.191406 660.902344 27.222656 660.582031 27.222656 C 659.800781 27.222656 659.136719 26.9375 658.59375 26.371094 C 658.050781 25.800781 657.78125 25.003906 657.78125 23.980469 C 657.78125 22.972656 658.054688 22.15625 658.601562 21.527344 C 659.148438 20.898438 659.863281 20.582031 660.746094 20.582031 C 661.191406 20.582031 661.621094 20.6875 662.039062 20.898438 Z M 662.425781 23.359375 C 662.382812 22.902344 662.285156 22.539062 662.128906 22.265625 C 661.839844 21.757812 661.355469 21.503906 660.679688 21.503906 C 660.195312 21.503906 659.789062 21.679688 659.460938 22.027344 C 659.132812 22.378906 658.960938 22.820312 658.941406 23.359375 Z M 668.273438 18.390625 L 669.648438 18.390625 L 673.996094 25.363281 L 673.996094 18.390625 L 675.105469 18.390625 L 675.105469 27 L 673.796875 27 L 669.386719 20.03125 L 669.386719 27 L 668.273438 27 Z M 677.84375 20.722656 L 677.84375 24.890625 C 677.84375 25.210938 677.894531 25.472656 677.996094 25.675781 C 678.183594 26.050781 678.53125 26.238281 679.042969 26.238281 C 679.777344 26.238281 680.277344 25.910156 680.542969 25.253906 C 680.6875 24.902344 680.761719 24.417969 680.761719 23.804688 L 680.761719 20.722656 L 681.816406 20.722656 L 681.816406 27 L 680.820312 27 L 680.832031 26.074219 C 680.695312 26.3125 680.523438 26.511719 680.320312 26.675781 C 679.917969 27.003906 679.429688 27.167969 678.855469 27.167969 C 677.960938 27.167969 677.351562 26.871094 677.027344 26.273438 C 676.851562 25.953125 676.765625 25.523438 676.765625 24.988281 L 676.765625 20.722656 Z M 683.460938 20.722656 L 684.503906 20.722656 L 684.503906 21.613281 C 684.753906 21.304688 684.980469 21.082031 685.183594 20.941406 C 685.53125 20.703125 685.925781 20.582031 686.367188 20.582031 C 686.867188 20.582031 687.269531 20.707031 687.574219 20.953125 C 687.746094 21.09375 687.902344 21.300781 688.042969 21.574219 C 688.277344 21.238281 688.550781 20.988281 688.867188 20.828125 C 689.183594 20.664062 689.539062 20.582031 689.933594 20.582031 C 690.777344 20.582031 691.351562 20.886719 691.65625 21.496094 C 691.820312 21.824219 691.902344 22.265625 691.902344 22.820312 L 691.902344 27 L 690.808594 27 L 690.808594 22.640625 C 690.808594 22.222656 690.703125 21.933594 690.496094 21.777344 C 690.285156 21.621094 690.03125 21.542969 689.730469 21.542969 C 689.316406 21.542969 688.960938 21.683594 688.660156 21.960938 C 688.363281 22.238281 688.210938 22.699219 688.210938 23.347656 L 688.210938 27 L 687.140625 27 L 687.140625 22.902344 C 687.140625 22.476562 687.089844 22.167969 686.988281 21.972656 C 686.828125 21.679688 686.527344 21.53125 686.089844 21.53125 C 685.691406 21.53125 685.332031 21.6875 685.003906 21.996094 C 684.679688 22.304688 684.515625 22.863281 684.515625 23.671875 L 684.515625 27 L 683.460938 27 Z M 693.363281 18.363281 L 694.386719 18.363281 L 694.386719 21.484375 C 694.617188 21.183594 694.894531 20.957031 695.214844 20.796875 C 695.535156 20.640625 695.882812 20.558594 696.257812 20.558594 C 697.039062 20.558594 697.671875 20.828125 698.160156 21.367188 C 698.644531 21.902344 698.886719 22.695312 698.886719 23.742188 C 698.886719 24.734375 698.648438 25.558594 698.167969 26.214844 C 697.6875 26.871094 697.019531 27.199219 696.167969 27.199219 C 695.691406 27.199219 695.289062 27.082031 694.960938 26.851562 C 694.765625 26.714844 694.558594 26.496094 694.335938 26.195312 L 694.335938 27 L 693.363281 27 Z M 697.386719 25.585938 C 697.667969 25.132812 697.808594 24.535156 697.808594 23.792969 C 697.808594 23.132812 697.667969 22.585938 697.386719 22.152344 C 697.101562 21.71875 696.683594 21.503906 696.132812 21.503906 C 695.652344 21.503906 695.234375 21.679688 694.871094 22.035156 C 694.511719 22.390625 694.328125 22.976562 694.328125 23.792969 C 694.328125 24.382812 694.402344 24.863281 694.550781 25.230469 C 694.828125 25.921875 695.347656 26.265625 696.105469 26.265625 C 696.675781 26.265625 697.101562 26.039062 697.386719 25.585938 Z M 704.023438 20.898438 C 704.441406 21.105469 704.761719 21.375 704.980469 21.707031 C 705.191406 22.023438 705.332031 22.394531 705.402344 22.816406 C 705.464844 23.105469 705.496094 23.566406 705.496094 24.199219 L 700.894531 24.199219 C 700.914062 24.835938 701.066406 25.347656 701.347656 25.730469 C 701.628906 26.117188 702.0625 26.308594 702.652344 26.308594 C 703.203125 26.308594 703.644531 26.125 703.972656 25.761719 C 704.160156 25.550781 704.292969 25.308594 704.371094 25.03125 L 705.40625 25.03125 C 705.378906 25.261719 705.289062 25.519531 705.136719 25.800781 C 704.980469 26.085938 704.808594 26.316406 704.617188 26.496094 C 704.296875 26.808594 703.898438 27.019531 703.425781 27.128906 C 703.171875 27.191406 702.886719 27.222656 702.566406 27.222656 C 701.785156 27.222656 701.121094 26.9375 700.578125 26.371094 C 700.035156 25.800781 699.765625 25.003906 699.765625 23.980469 C 699.765625 22.972656 700.039062 22.15625 700.585938 21.527344 C 701.132812 20.898438 701.847656 20.582031 702.730469 20.582031 C 703.175781 20.582031 703.605469 20.6875 704.023438 20.898438 Z M 704.410156 23.359375 C 704.367188 22.902344 704.269531 22.539062 704.113281 22.265625 C 703.824219 21.757812 703.339844 21.503906 702.664062 21.503906 C 702.179688 21.503906 701.773438 21.679688 701.445312 22.027344 C 701.117188 22.378906 700.945312 22.820312 700.925781 23.359375 Z M 706.816406 20.722656 L 707.820312 20.722656 L 707.820312 21.808594 C 707.902344 21.597656 708.101562 21.339844 708.421875 21.039062 C 708.742188 20.734375 709.113281 20.582031 709.53125 20.582031 C 709.550781 20.582031 709.582031 20.585938 709.628906 20.589844 C 709.675781 20.59375 709.757812 20.601562 709.871094 20.613281 L 709.871094 21.726562 C 709.808594 21.714844 709.75 21.707031 709.699219 21.703125 C 709.644531 21.699219 709.585938 21.695312 709.523438 21.695312 C 708.992188 21.695312 708.585938 21.867188 708.300781 22.210938 C 708.015625 22.550781 707.871094 22.945312 707.871094 23.390625 L 707.871094 27 L 706.816406 27 Z M 706.816406 20.722656 "/>
<path style=" stroke:none;fill-rule:nonzero;fill:rgb(0%,0%,0%);fill-opacity:1;" d="M 646.964844 38.027344 L 646.964844 34.226562 L 644.277344 38.027344 Z M 646.984375 41 L 646.984375 38.949219 L 643.304688 38.949219 L 643.304688 37.917969 L 647.148438 32.585938 L 648.039062 32.585938 L 648.039062 38.027344 L 649.273438 38.027344 L 649.273438 38.949219 L 648.039062 38.949219 L 648.039062 41 Z M 657.148438 36.03125 C 657.640625 36.03125 658.023438 35.960938 658.296875 35.824219 C 658.726562 35.609375 658.941406 35.222656 658.941406 34.664062 C 658.941406 34.101562 658.710938 33.722656 658.253906 33.527344 C 657.996094 33.417969 657.613281 33.363281 657.105469 33.363281 L 655.027344 33.363281 L 655.027344 36.03125 Z M 657.539062 40.003906 C 658.253906 40.003906 658.765625 39.796875 659.070312 39.382812 C 659.261719 39.121094 659.355469 38.804688 659.355469 38.433594 C 659.355469 37.808594 659.078125 37.382812 658.519531 37.15625 C 658.222656 37.035156 657.828125 36.972656 657.339844 36.972656 L 655.027344 36.972656 L 655.027344 40.003906 Z M 653.882812 32.390625 L 657.582031 32.390625 C 658.589844 32.390625 659.304688 32.691406 659.730469 33.292969 C 659.980469 33.648438 660.105469 34.058594 660.105469 34.523438 C 660.105469 35.066406 659.953125 35.511719 659.644531 35.859375 C 659.484375 36.042969 659.253906 36.210938 658.953125 36.363281 C 659.394531 36.53125 659.722656 36.722656 659.941406 36.933594 C 660.328125 37.308594 660.523438 37.824219 660.523438 38.484375 C 660.523438 39.039062 660.347656 39.542969 660 39.992188 C 659.480469 40.664062 658.65625 41 657.523438 41 L 653.882812 41 Z M 665.691406 34.722656 L 666.859375 34.722656 C 666.710938 35.125 666.378906 36.042969 665.867188 37.476562 C 665.484375 38.554688 665.164062 39.433594 664.90625 40.113281 C 664.296875 41.714844 663.867188 42.691406 663.617188 43.042969 C 663.367188 43.394531 662.9375 43.570312 662.328125 43.570312 C 662.179688 43.570312 662.066406 43.566406 661.988281 43.554688 C 661.90625 43.542969 661.808594 43.519531 661.691406 43.488281 L 661.691406 42.527344 C 661.875 42.578125 662.007812 42.609375 662.089844 42.621094 C 662.171875 42.632812 662.242188 42.640625 662.304688 42.640625 C 662.5 42.640625 662.644531 42.609375 662.738281 42.542969 C 662.828125 42.480469 662.90625 42.398438 662.96875 42.304688 C 662.988281 42.273438 663.058594 42.113281 663.179688 41.824219 C 663.300781 41.535156 663.386719 41.320312 663.441406 41.179688 L 661.121094 34.722656 L 662.316406 34.722656 L 664 39.832031 Z M 667.984375 32.972656 L 669.050781 32.972656 L 669.050781 34.722656 L 670.050781 34.722656 L 670.050781 35.585938 L 669.050781 35.585938 L 669.050781 39.679688 C 669.050781 39.898438 669.125 40.046875 669.273438 40.121094 C 669.355469 40.164062 669.492188 40.183594 669.683594 40.183594 C 669.734375 40.183594 669.789062 40.183594 669.847656 40.183594 C 669.90625 40.179688 669.972656 40.175781 670.050781 40.167969 L 670.050781 41 C 669.929688 41.035156 669.804688 41.058594 669.675781 41.074219 C 669.542969 41.089844 669.402344 41.097656 669.25 41.097656 C 668.757812 41.097656 668.421875 40.972656 668.246094 40.722656 C 668.070312 40.46875 667.984375 40.140625 667.984375 39.738281 L 667.984375 35.585938 L 667.132812 35.585938 L 667.132812 34.722656 L 667.984375 34.722656 Z M 675.007812 34.898438 C 675.425781 35.105469 675.746094 35.375 675.964844 35.707031 C 676.175781 36.023438 676.316406 36.394531 676.386719 36.816406 C 676.449219 37.105469 676.480469 37.566406 676.480469 38.199219 L 671.878906 38.199219 C 671.898438 38.835938 672.050781 39.347656 672.332031 39.730469 C 672.613281 40.117188 673.046875 40.308594 673.636719 40.308594 C 674.1875 40.308594 674.628906 40.125 674.957031 39.761719 C 675.144531 39.550781 675.277344 39.308594 675.355469 39.03125 L 676.390625 39.03125 C 676.363281 39.261719 676.273438 39.519531 676.121094 39.800781 C 675.964844 40.085938 675.792969 40.316406 675.601562 40.496094 C 675.28125 40.808594 674.882812 41.019531 674.410156 41.128906 C 674.15625 41.191406 673.871094 41.222656 673.550781 41.222656 C 672.769531 41.222656 672.105469 40.9375 671.5625 40.371094 C 671.019531 39.800781 670.75 39.003906 670.75 37.980469 C 670.75 36.972656 671.023438 36.15625 671.570312 35.527344 C 672.117188 34.898438 672.832031 34.582031 673.714844 34.582031 C 674.160156 34.582031 674.589844 34.6875 675.007812 34.898438 Z M 675.394531 37.359375 C 675.351562 36.902344 675.253906 36.539062 675.097656 36.265625 C 674.808594 35.757812 674.324219 35.503906 673.648438 35.503906 C 673.164062 35.503906 672.757812 35.679688 672.429688 36.027344 C 672.101562 36.378906 671.929688 36.820312 671.910156 37.359375 Z M 675.394531 37.359375 "/>
</g>
</svg>
